<svg id="Layer_1" data-name="Layer 1" xmlns="http://www.w3.org/2000/svg" width="360" height="510" viewBox="0 0 360 510">
  <title>Artboard 1 copy</title>
  <g transform="translate(-120,-170)">
    <g>
      <path d="M448.13,299.28s-14-19.67-28.5,11.5l-122-58.9-122,58.9c-14.5-31.17-28.5-11.5-28.5-11.5S117.81,328.61,125.81,374a591.27,591.27,0,0,0,6.07,64.7l.16,1.05c3.44,23,8.74,49.11,16.92,73.39,0,0,17.52,55.52,44.85,81.52,0,0,11.33,15.34,27.33,8.67l15.34-4-4.67,29.33,65.62,41.08.21.13.21-.13,65.61-41.08-4.66-29.33,15.33,4c16,6.67,27.33-8.67,27.33-8.67,27.34-26,44.86-81.52,44.86-81.52,8.17-24.28,13.48-50.41,16.92-73.39l.16-1.05a589.55,589.55,0,0,0,6.06-64.7C477.46,328.61,448.13,299.28,448.13,299.28Z" style="fill: none;stroke: #fff;stroke-miterlimit: 10;stroke-width: 15px"/>
      <path d="M448.13,299.28c20.26,36.59-143.94,126.32-150.49,129.89-6.56-3.57-170.75-93.3-150.5-129.89,0,0-29.33,29.33-21.33,74.67,0,0,1.83,75.83,23.15,139.14,0,0,17.52,55.52,44.85,81.52,0,0,11.33,15.34,27.33,8.67l15.34-4-4.67,29.33,65.83,41.21,65.82-41.21-4.66-29.33,15.33,4c16,6.67,27.33-8.67,27.33-8.67,27.34-26,44.86-81.52,44.86-81.52C467.63,449.78,469.46,374,469.46,374,477.46,328.61,448.13,299.28,448.13,299.28Z" style="fill: #0a0b13"/>
      <path d="M342.88,542a17.24,17.24,0,0,0-14.5-5.25V518s-4.75-.25-11,3.75L328.13,494s4.55-24.79-30.28-28.95V465l-.21,0-.21,0v.05C262.59,469.24,267.14,494,267.14,494l10.75,27.75c-6.25-4-11-3.75-11-3.75v18.75a17.24,17.24,0,0,0-14.5,5.25c-6.5,3.5-12.25,30.25,5.75,41.5,17,10.62,37.28-1,39.5-2.37,2.21,1.34,22.5,13,39.49,2.37C355.13,572.28,349.38,545.53,342.88,542Z" style="fill: #fff"/>
      <path d="M419.63,310.78,297.85,252v-.2l-.21.1-.21-.1v.2l-121.79,58.8L148.14,322s4,48.66,39,43.33c0,0,48.69-25.56,110.29.24v.17l.21-.09.21.09v-.17c61.6-25.8,110.28-.24,110.28-.24,35,5.33,39-43.33,39-43.33Z" style="fill: #ec1f27"/>
      <path d="M464.14,368.66s6.66-29.05-16-69.38c0,0-14-19.67-28.5,11.5,0,0-9.5,31.17,3.5,45.5,0,0,8,2.67,24-34.33,0,0-6,49.66-39,43.33,0,0-44.64-25.46-110.49.33-65.85-25.79-110.5-.33-110.5-.33-33,6.33-39-43.33-39-43.33,16,37,24,34.33,24,34.33,13-14.33,3.5-45.5,3.5-45.5-14.5-31.17-28.5-11.5-28.5-11.5-22.66,40.33-16,69.38-16,69.38,5.24,37.62,54,53.12,54,53.12-24.5,16.5-54.5,16.92-54.5,16.92,25,18.66,69.5,17.91,69.5,17.91l1.5-17.58-7.18-11c-18.43,18.5-34.32,16.5-34.32,16.5,23.5-6.75,34.32-23.5,34.32-23.5l10.68,17c-4,30,2,49,2,49,7,30.42,35.25,58.5,35.25,58.5,5-19.25,22.75-30.25,22.75-30.25l-7-28.25c-35-3.25-39.5-52.5-39.5-52.5,33.5,12.75,50.5,30,50.5,30-2-5.29-5-12.47-5-12.47l21,12.47,12.5-19.56,12.49,19.56,21-12.47s-3,7.18-5,12.47c0,0,17-17.22,50.5-30,0,0-4.5,49.25-39.5,52.5l-7,28.25s17.75,11,22.75,30.25c0,0,28.25-28.08,35.25-58.5,0,0,6-19,2-49l10.69-17s10.81,16.75,34.31,23.5c0,0-15.88,2-34.31-16.5l-7.19,11,1.5,17.58s44.5.75,69.5-17.91c0,0-30-.42-54.5-16.92C410.13,421.78,458.89,406.28,464.14,368.66Z" style="fill: #fff"/>
      <path d="M160.64,363s11,10.25,17.5,11.25a5.21,5.21,0,0,1,3.5-2.25s-15-4.25-17.75-9Z" style="fill: #0a0b13"/>
      <path d="M165.39,387s15.5,15,29,14.75c0,0,.5,7.25-1.25,11.25,0,0-2,5.5-4.75,5.25,0,0-25.25-8-37.75-22.5,0,0-15.75-16-14-34.75,0,0,4,17.25,10.25,22.5,0,0-3.25-7.5-1.25-12,0,0,7.5,28,34,35C179.64,406.53,168.64,400,165.39,387Z" style="fill: #0a0b13"/>
      <path d="M255.64,559.78s15.48-3.45,25,10.75c0,0-6.5-22.25-16.75-22C263.89,548.53,257.64,550.28,255.64,559.78Z" style="fill: #231f20"/>
      <path d="M235.39,455l22.75,14s-5.5,7.5-15.5,4C242.64,473,234.89,468.28,235.39,455Z" style="fill: #ec1f27"/>
      <path d="M434.63,363s-11,10.25-17.5,11.25a5.21,5.21,0,0,0-3.5-2.25s15-4.25,17.75-9Z" style="fill: #0a0b13"/>
      <path d="M429.88,387s-15.5,15-29,14.75c0,0-.5,7.25,1.25,11.25,0,0,2,5.5,4.75,5.25,0,0,25.25-8,37.75-22.5,0,0,15.75-16,14-34.75,0,0-4,17.25-10.25,22.5,0,0,3.25-7.5,1.25-12,0,0-7.5,28-34,35C415.63,406.53,426.63,400,429.88,387Z" style="fill: #0a0b13"/>
      <path d="M303.88,589.78H291.39c-3.25,0-14,2.5-30,0,0,0,5.64,29.86,36.25,20.56,30.61,9.3,36.24-20.56,36.24-20.56C317.88,592.28,307.13,589.78,303.88,589.78Z" style="fill: #fff"/>
      <path d="M339.63,559.78s-15.47-3.45-25,10.75c0,0,6.5-22.25,16.75-22C331.38,548.53,337.63,550.28,339.63,559.78Z" style="fill: #231f20"/>
      <path d="M359.88,455l-22.75,14s5.5,7.5,15.5,4C352.63,473,360.38,468.28,359.88,455Z" style="fill: #ec1f27"/>
    </g>
    <g>
      <path d="M208.13,172.07c1.63,13.4,2.44,26.8,3.06,40.2s.84,26.8.84,40.2-.26,26.8-.83,40.2-1.43,26.79-3.07,40.19c-1.63-13.4-2.45-26.8-3.06-40.19s-.84-26.8-.84-40.2.28-26.8.85-40.2S206.51,185.47,208.13,172.07Z" style="fill: #eb2329"/>
      <path d="M387.14,172.07c1.63,13.4,2.44,26.8,3.06,40.2s.84,26.8.84,40.2-.26,26.8-.83,40.2-1.43,26.79-3.07,40.19c-1.63-13.4-2.45-26.8-3.07-40.19s-.83-26.8-.83-40.2.27-26.8.85-40.2S385.52,185.47,387.14,172.07Z" style="fill: #eb2329"/>
      <path d="M327.47,172.07c1.63,13.4,2.44,26.8,3.06,40.2s.84,26.8.84,40.2-.26,26.8-.83,40.2-1.43,26.79-3.07,40.19c-1.63-13.4-2.45-26.8-3.06-40.19s-.84-26.8-.84-40.2.27-26.8.85-40.2S325.85,185.47,327.47,172.07Z" style="fill: #eb2329"/>
      <path d="M267.8,172.07c1.63,13.4,2.44,26.8,3.06,40.2s.84,26.8.84,40.2-.26,26.8-.83,40.2-1.43,26.79-3.07,40.19c-1.63-13.4-2.45-26.8-3.06-40.19s-.84-26.8-.84-40.2.27-26.8.85-40.2S266.18,185.47,267.8,172.07Z" style="fill: #eb2329"/>
    </g>
  </g>
</svg>
