<svg id="Layer_1" data-name="Layer 1" xmlns="http://www.w3.org/2000/svg" width="370" height="365" viewBox="0 0 370 365">
  <title>Artboard 1</title>
  <g transform="translate(-110,-240)">
    <path d="M181.88,532.85q-3.07-3.24-6.14-6.47c-2.18-2-5.25-2.83-7.27-5.1-14.09-8.42-18.27-23.8-25.85-36.79-2.12-3.16-2.44-7.26-5.26-10.06v-.05c-2-4.17-2.58-9.11-6.6-12.2a12.46,12.46,0,0,1-1.3-3.54,24.48,24.48,0,0,1-.78-7.53c.16-4.57-1-10.64,3.74-12.54,5.34-2.14,6.87,4.93,10.55,7.32a22.72,22.72,0,0,1,4.56,6.15c1,2.31,1.72,4.67.8,7.19-1,.75-2.71,2.07-2.39,2.56.83,1.29.79-.91,1.63-.89,3.44-.9,5.37,1.31,7.38,3.38a47.42,47.42,0,0,1,4.94,7.53c1.69,4.9,2.62,10.09,5.34,14.62,1.26,2.6,2.38,5.26,3.61,7.88,2.2,3.06,2.26,7.76,7,8.83,7.46,3.45,10.64-4.08,15.91-6.19,5.94,2.67,9.32,9.14,16,10.68a23.05,23.05,0,0,1,3.36,1.52c2.73,1.67,5.27,3.49,5.52,7.08a5.39,5.39,0,0,1-1.6,3.23c-6.27,2.15-11.33-.38-15.9-4.08a5,5,0,0,1-.46-.34s.39.58.48.7c3.26,10.55-7.26,6.85-10.6,10.55C186.44,528.61,185.7,532.31,181.88,532.85Z" style="fill: #ed4748"/>
    <path d="M391.5,557.32l-1.21.18h-1.22c-1.3,3.06-3.75-5.81-5.49.72a17.49,17.49,0,0,1-7.38,9.69l-20.26,15.84c-2.44,1.26-4.67,1.49-6.33-1.22-.39-2.69,1.34-4.4,2.8-6.23,3.33-3.24.17-7.51,1.7-11a12.53,12.53,0,0,1,3.05-4.26c3.15-2.64,6.21-5.43,10.41-6.35,5.32-.49,9.37-2.83,11.53-7.93,1.1-2,2.2-3.94,3.38-5.86,3.83-5.06,6.48-10.81,9.44-16.38,4.09-5,6.81-11.34,13-14.46,7.38,3.5,8.87,9.78,8.05,17.15q-1.73,4.44-3.43,8.86c-.94,2.15,0,4.71-1.49,6.73-3.17,3.27-6.95,6-9.26,10C397.06,555.4,394.27,556.35,391.5,557.32Z" style="fill: #dc4344"/>
    <path d="M350.24,580.93c1.28,2.18,3.46,2.55,5.7,2.81-2.8,3.49-7.47,2.76-10.89,4.85-3.05,2.09-6.66,2.1-10.11,2.65-4.9.25-9.82,1.84-14.66-.27a8.65,8.65,0,0,1-4.29-4c-1.16-6.66,5.6-4.83,8.42-7.62,1.38-.37-1.73-1.59-.54-.34-3.38,3-7.15,2-10.95,1.09a4.8,4.8,0,0,1-2.24-3c4.32-7.49,11.81-7.42,18.9-7.44,7.76,0,15.17-.9,22-4.83a4.11,4.11,0,0,1,3.86.58c-1.77,4.3,8.95,8.58,0,12.9C352.47,576.69,351,578,350.24,580.93Z" style="fill: #d94343"/>
    <path d="M319,588.58l16.16.59c-1.3,4.65-6,4.8-9.21,6.93a52.43,52.43,0,0,1-6.38.41c-9.31,3.39-16.61-4.46-25.77-4.41-11.08,0-21.53,4.34-32.56,3.23a5.1,5.1,0,0,1-3.94-1.7c-4.48-5-12.69-3.57-16.61-9.57.27-.69.53-1.39.79-2.08a7.92,7.92,0,0,1,5.7-3.05c18.9,3.47,37.76,7.17,57.21,5.47C309.54,584,314.51,585.87,319,588.58Z" style="fill: #aa3a39"/>
    <path d="M413,527.16q-4-8.13-8.06-16.28c1.71-3.53-1.15-4.2-3.33-5.32-.48-3.43,2.09-4.87,4.25-6.59,2.31-1.5,4.31-3.47,6.84-4.68a5.57,5.57,0,0,1,3.25.38c4,2.54,3,8.31,7,10.93C421.2,513.52,418.4,520.94,413,527.16Z" style="fill: #bf3c3d"/>
    <path d="M225.69,575.64c-3.79-1.89-7.52-3.94-11.4-5.64s-22.94-21-25-25.6c3.82-1.69,6.05,1.47,8.86,2.86,2.28,1.51,4.93,1.86,7.54,2.34a12.35,12.35,0,0,1,4.58,1.92c3.61,3.56,7,7.42,11.46,10,2.88,2.42,5.29,5.14,5.88,9A6.09,6.09,0,0,1,225.69,575.64Z" style="fill: #2c1210"/>
    <path d="M422.92,505.6c-9.51,1.71-5.41-6.81-7.84-10.42-5.15-4.9-.26-10.33-.86-15.47-.52-2.73-1.37-5.45-.12-8.2a5.89,5.89,0,0,1,5.72-3c.57,4.79,3.27,2.72,5.63,1.71,7.89-.85,10.38,2.07,6.46,9.35-1.79,3.33-2.83,7-5.1,10.12a3.89,3.89,0,0,1-3,1.1c-.73-.73-1.47-1.6-2.75-1,2.36-.41,3,1.55,4,3,1.19,4-.48,7.47-1.81,11A1.59,1.59,0,0,1,422.92,505.6Z" style="fill: #d94140"/>
    <path d="M259.38,593.76c20.78-3.7,41.55-2.85,62.31.18-5.37,6.14-7.05,6.43-15.56,2.65a20,20,0,0,0-13-2.51c-10.72-3-20.39,6.85-31.22,2.57C259.25,597.25,258.57,596.15,259.38,593.76Z" style="fill: #2b1213"/>
    <path d="M181.88,532.85a13.83,13.83,0,0,0,2.19-9c7.28.64,12.75,3.54,14.32,11.36-1.19,3.35-4.82,4.62-6.5,7.57a2.71,2.71,0,0,1-3-.55C184.67,540.49,180.65,538.62,181.88,532.85Z" style="fill: #cd4543"/>
    <path d="M423.23,503.8q-.14-6.89-.28-13.77h2.55c3.35-4.46,3.33-13,12.57-10.31L433.65,490Z" style="fill: #d24b4a"/>
    <path d="M376.2,567.9c1.85-3.68,3.7-7.38,5.57-11.06,3-5.8,5-.65,7.3.65A22.34,22.34,0,0,1,376.2,567.9Z" style="fill: #dc3f40"/>
    <path d="M225.69,575.64c0-1.78,0-3.56.07-5.34,2.58-2,4.74-.82,6.85.88,2.22,3,5.59,5.62,3.07,10.05A16.92,16.92,0,0,1,225.69,575.64Z" style="fill: #652126"/>
    <path d="M235.68,581.23,231,573c3.39-2.89,6.39-.86,9.44.73a7.79,7.79,0,0,1,2.2,2.61c1,2.36.19,4.47-1,6.52l-1,1.23Z" style="fill: #aa3a39"/>
    <path d="M326.38,593.55l8.78-4.39,9.89-.57-2.61,2.83L332,594.13A4.07,4.07,0,0,1,326.38,593.55Z" style="fill: #2b1213"/>
    <path d="M132.06,466.68l-.06-5.09c6.17,2.43,5.3,7.8,5.34,12.79Z" style="fill: #e0444a"/>
    <path d="M137.36,474.43c4.45,1.95,5.44,5.69,5.26,10.06C139.78,481.7,137.2,478.78,137.36,474.43Z" style="fill: #e0444a"/>
    <path d="M188.86,542.23l2.74-.58c3.06-1.22,4.91.42,6.5,2.72a5.06,5.06,0,0,1-1.06,5.4l-7.72-5.37C189.19,543.67,189,543,188.86,542.23Z" style="fill: #7e3a41"/>
    <path d="M389.2,243.29l2.55,7.84c-.17.52-.34,1-.5,1.55A13.3,13.3,0,0,1,388,256.4a3.82,3.82,0,0,1-5.87-1c-2.05-4-5-7.52-6.92-11.59a3.3,3.3,0,0,1,1-3.08h0C380.75,240.52,385.17,240.91,389.2,243.29Z" style="fill: #3a1518"/>
    <path d="M196.51,250.89l2.75-1.92.22-.06c4.66,2.17,8.44,4.91,7.14,11a5.66,5.66,0,0,1-2.17,2.66c-4,2.37-5.88-5.81-10.18-2.06a5.55,5.55,0,0,1-3-1.51C190,254.32,194.63,253.5,196.51,250.89Z" style="fill: #ba373c"/>
    <path d="M196.51,250.89l-4.69,8c.9,5-2.57,4.29-5.53,4.25a3.43,3.43,0,0,1-2.24-2.5l.11-4.19.08-.06c3.2-.12,4.92-1.79,5.18-5Z" style="fill: #5f1c1b"/>
    <path d="M148.34,303.34l9.66-.48a4.14,4.14,0,0,1,5.3-.24l18,.2.9,1.61a4.26,4.26,0,0,1-2,3,14.63,14.63,0,0,1-5.33,1.48c-4.78.37-9.65,0-14.25,1.83-4.11,1-8.27,1.66-12.33,2.87-5.27.95-10.65.38-15.94,1.16a11.94,11.94,0,0,1-3.53.18,5.05,5.05,0,0,1-2.88-1.87c-.6-1.79-.57-3.4,1.3-4.48h-.19C133.64,304.67,141.82,307.37,148.34,303.34Z" style="fill: #9f2b34"/>
    <path d="M181.53,305.71c-.08-1-.15-1.93-.23-2.89.42-8.49-.26-17.09,2.36-25.37.55-.36,1.1-.72,1.66-1.07a3.63,3.63,0,0,1,3,2.2,13.57,13.57,0,0,1,.39,8C185.29,292.54,192,302.36,181.53,305.71Z" style="fill: #b43939"/>
    <path d="M183.66,277.45c-2.92-5.66-3.33-11.26.39-16.77a5.64,5.64,0,0,0,.1,1.69c4.22,4.71,3.93,9.5.25,14.35Z" style="fill: #b23f43"/>
    <path d="M433.24,432.83a18.11,18.11,0,0,0-4-14.29c6.47-2,14.17-.06,14.47-9-.44-6.43,3.6-10.07,8.64-12.31,3.65-1.62,6.46.23,6.94,4.56a62.86,62.86,0,0,1-5.75,5.06,5,5,0,0,1-1.76,1c1.13.53,2.12-.35,3.26-.3a6.15,6.15,0,0,1,4.26,2c-.23,4.56.17,9,2.61,13-7.87,14.18-9.19,14.7-18.41,7.19-.81-.32,0-2.53-1.16-1.65s-1.71,2.7-3,3.82a7.72,7.72,0,0,1-4.62,1.73Z" style="fill: #161011"/>
    <path d="M421.28,446.29c.54-1.21,1.09-2.42,1.63-3.62,2.7-3.45,5.63-6.43,10.59-5.53a8.81,8.81,0,0,1,4,3.39c.48,8.12,11.12,5,13,11.68-.17,2.38-.07,4.81-1.27,7,0,6.53-1.67,12.16-7.87,15.53-3.4-3-2.36-6.41-1-9.85-.56-1.15,4.29-3.86-1.14-3.57-3.71.93-7.35,2.22-11.17.75C423.32,457.86,430.18,448.72,421.28,446.29Z" style="fill: #a23538"/>
    <path d="M474.88,427.7c-1.71-.7-4,7.47-5.13-.25-.6-4.14-2.71-3.36-5.25-2.35-.57-.34-5.41-2.75-5.23-3.4s-5.31-24.88-5.09-24.88h10.27c15.85,8,8.42,20.91,10.43,30.88Z" style="fill: #0d1311"/>
    <path d="M443.82,464.18c-1.74,3.31-3.19,6.68-2.49,10.57l-3.25,4.93c-6,1.28-8.1,7.22-12.57,10.31a18.33,18.33,0,0,1,4.19-12.8c6.16-7.91-4.77-2.15-4.23-5.45-1.22-2.85.33-4.76,2.21-6.56a33.61,33.61,0,0,1,13.94-4.93C443.59,460.87,445,461.8,443.82,464.18Z" style="fill: #dd4548"/>
    <path d="M464.45,422.58c0,.84,0,1.68.05,2.52s0,1.74,0,2.61c1.32,4.77-3.14,7.14-4.49,10.8-1.84,1.59-3.56,3.4-6.35,3-6.05-2.61-17.17-1.59-9.93-13.78,10,11.84,11.54-5.5,18.18-5.21C462.74,422.52,463.59,422.54,464.45,422.58Z" style="fill: #271014"/>
    <path d="M469.57,300.33c.86,6.69,6.21,4.95,10.33,5.5-1.64,5.81-12.09,4.16-10.63,12.58-1.44,1.54-3,1.81-4.71.45l-3-.5a7.44,7.44,0,0,1-1-3.68C462.06,309,459.77,300.83,469.57,300.33Z" style="fill: #651c20"/>
    <path d="M462.1,316.18a17.93,17.93,0,0,0-.58,2.18l-15.19,3.35-2.61-.7c-1.08-3,.52-5,2.56-6.84A16.47,16.47,0,0,1,457.63,311C460.2,311.76,463.09,312.32,462.1,316.18Z" style="fill: #c5444e"/>
    <path d="M474.88,427.7c6.19,1.25,5.48,4.68,3.4,9.27C473.35,434.59,475.52,430.7,474.88,427.7Z" style="fill: #0d1311"/>
    <path d="M459.3,438c-.32-4.46,3.72-6.73,5.18-10.29,4.44,6.73-1.17,9.58-5.05,13.1-.91-.58-1.23-1.19-1-1.83S459,438,459.3,438Z" style="fill: #311b1e"/>
    <path d="M449.2,459.22l-.26-8.32c-.81-4.31,1.38-5.72,5.29-5.45a2.11,2.11,0,0,1,.78,2.12q-.3,1.11-.63,1.11C453.32,452.52,452.36,456.41,449.2,459.22Z" style="fill: #793335"/>
    <path d="M451.55,404.45c1.82-3.07,4.85-2.64,7.72-2.68v7.73l-5.41-.05C452,408.29,453,405.79,451.55,404.45Z" style="fill: #271014"/>
    <path d="M454.38,448.68c-.12-1-.23-1.91-.35-2.87-1.44-1.09-1.51-2.5-1-4.06l1.11-1.06L459.3,438c0,.94.08,1.87.13,2.81A9.5,9.5,0,0,1,454.38,448.68Z" style="fill: #4c2c2c"/>
    <path d="M197,536.86c-1-7.58-10-7.32-12.88-13,2-2.88,5-2.93,7.88-2.61,7.17.78,5.79-3.68,5.08-7.84h0l18.16,5.2a3.12,3.12,0,0,1,.06,3.3c-2.61,2.43-7.84,3.73-3.83,9a21.39,21.39,0,0,1,1.93,5c1,4.51.68,8.7-3,12-5.24,2.17-8.1-1.64-11.35-4.49C197.2,541.6,195.66,539.66,197,536.86Z" style="fill: #e54747"/>
    <path d="M158,471.87a8.19,8.19,0,0,1-5-5.67,7,7,0,0,1,5.21-4.39,13.12,13.12,0,0,1,6.91.6,7.78,7.78,0,0,1,2.48,2.26,23,23,0,0,1,2.5,2.13,16.85,16.85,0,0,0,5.54,5.66,12.93,12.93,0,0,1,2.44,2.35,20.86,20.86,0,0,1,3.16,6.37,22.36,22.36,0,0,1,.73,7.51c-.65,4-1.65,7.75-6.81,7.83a5.51,5.51,0,0,1-3-1.87c-2.14-5.2-4.89-10-9.91-13C158,479.66,161,474.47,158,471.87Z" style="fill: #e7444b"/>
    <path d="M173.7,495.22c5.22-.38,5.15-4.23,5.25-8,4.08-1.54,6.48,1.71,9.49,3.26,2.51,2.2,7.09,2.71,6.29,7.63a1.85,1.85,0,0,1-2.63.07,2.08,2.08,0,0,1-.32-.4c-1.37,13.41-11,7.72-18.1,7.81C173.85,502.15,167,498.67,173.7,495.22Z" style="fill: #e54747"/>
    <path d="M142.5,443.3l-.05,5.19c-5.36.29-5.31-5.86-10.47-8.44v21.44c-1.39-3.09-2.87-6.15-4.16-9.28-2.61-6.38-3.78-13.92,2.6-17.46C137.27,431,138.16,440.66,142.5,443.3Z" style="fill: #e0444a"/>
    <path d="M210,510.83l-2.68-.1a4.27,4.27,0,0,1-.89-4.78c5.86-.82-2.69-6.17,2.29-7.31,3.65-2,7.63-1.77,11.58-1.81a19.82,19.82,0,0,1,8.13,1.4c2.57,1.4,4,3.41,3.44,6.49-.38.77-.84,1.63-1.59,1.85-4.19,1.23-5,2.38-3.64,5.89C220.47,518.43,215.71,510,210,510.83Z" style="fill: #dd4440"/>
    <path d="M215.25,520.9c0-.77,0-1.54-.05-2.31s0-1.73,0-2.59c4.16-4.27,10.14,0,14.54-3.12,4.53-.47,8.92-.45,12.13,3.55a6.59,6.59,0,0,1,.47,4.24c-3,6-8.46,4.07-13.3,4.2C224.2,524.44,218.87,525.62,215.25,520.9Z" style="fill: #f0494c"/>
    <path d="M207.26,505.74l.09,5a21.77,21.77,0,0,1-15.57-12.93l2.45-.33a5.24,5.24,0,0,1,5.09-1.16C203.77,497.93,205.59,501.77,207.26,505.74Z" style="fill: #c32e2e"/>
    <path d="M231.05,515.83l-15.84.17L210,510.83c6-4,10.47,1.42,15.64,2.53,1.3-1.65,2.35-3.69,5-3.15a4.6,4.6,0,0,1,1.58,2.72A4.7,4.7,0,0,1,231.05,515.83Z" style="fill: #e54747"/>
    <path d="M157.84,463.93,153,466.2l-4.89-5.58c-.87-.21-1.2-.52-1-.93s.44-.7.69-.7c-.56-2-1.11-3.92-1.67-5.88a5.14,5.14,0,0,0,1.54-.71c3,2.91,5.45,6.55,10.29,6.46C159.6,460.6,159.62,462.29,157.84,463.93Z" style="fill: #681e0e"/>
    <path d="M147.83,459a2.81,2.81,0,0,1,.32,1.63c-.46,4-.93,8.06-1.52,13.2C141.24,464.74,141.24,464.74,147.83,459Z" style="fill: #f04b40"/>
    <path d="M173.7,495.22c-2.64,3.46,1.1,6.93,0,10.39A15.76,15.76,0,0,1,166,495.16c.83-1.45,1.38-3.11,3.09-3.85a4.53,4.53,0,0,1,4.63,1.2C173.67,493.41,173.68,494.32,173.7,495.22Z" style="fill: #dc3d3a"/>
    <path d="M158,471.87c5.8-.1.46,7.2,5.2,7.81,1.71,1.31,3.79,2.37,3.55,5.06a4.48,4.48,0,0,1-3.76,2.81C158.41,483.26,157.87,477.68,158,471.87Z" style="fill: #df3b39"/>
    <path d="M197,513.4c-2.14.42-4.21,3.29-6.37.36-.27-.36.77-2.23,1.61-2.79,2.79-1.86,4.53-1.05,4.77,2.42Z" style="fill: #e54747"/>
    <path d="M163,487.55l2.82-2.78c3.23,1.8,5.43,4,2.66,7.81l-2.57,2.58Z" style="fill: #bf3b2e"/>
    <path d="M368.2,557.41l-10.11,5.4c-2.34,1.2-3.21-.27-3.87-2.12,0-5,4.23-6.89,7-9.85,3-2.65,5.8-5.45,8.82-8,4-2.65,6.37-8,12.29-7.49,3.95,1.36,2.1,4.2,1.68,6.67-.87,1.73-1.75,3.45-2.63,5.18C377.55,551.28,373.42,555.05,368.2,557.41Z" style="fill: #b2312f"/>
    <path d="M402.25,505.79c4.71-.31,3.51,2.49,2.69,5.09l-10.7,15.39c-2.15,1-3.16-.34-4.06-1.94a9.74,9.74,0,0,1-.38-3.44c.83-4,3.39-7.2,5.51-10.59C397.11,508,399.05,505.92,402.25,505.79Z" style="fill: #911a1d"/>
    <path d="M391.55,523.57l2.69,2.7c-2.94,5.54-4.13,12.21-10.21,15.71-2.74-1.7-.31-3.71-.32-5.57C381.36,529.1,383.45,524.5,391.55,523.57Z" style="fill: #a92725"/>
    <path d="M368.2,557.41c3.51-4.57,6.69-9.55,13.2-10.25C380.23,554.73,375.63,557.89,368.2,557.41Z" style="fill: #d94343"/>
    <path d="M355.39,560.17l2.7,2.64-2.65,2.6h-2.55c-3.22,4.38-7.52,4.9-12.36,3.47-2.28-6.94,4.19-6.42,7.39-8.71C350.4,559.43,352.89,558.55,355.39,560.17Z" style="fill: #c32d39"/>
    <path d="M406.88,541c-.62,6.59-4.25,10.18-10.81,10.86C397.45,546,401.65,543,406.88,541Z" style="fill: #341515"/>
    <path d="M350.24,580.93c-1.52-.31-4.23-.48-3-2.5,2.22-3.62,5.41-3.53,8.21-.12Z" style="fill: #c9312c"/>
    <path d="M326.38,593.55l5.66.58c-8.14,6-16.37,11.12-25.91,2.46,5.5,1,11,2,15.56-2.65Z" style="fill: #0d0c0e"/>
    <path d="M319,588.58c-24.36-1.29-49.29,2.79-72.67-7.73-2-1.47-3.39-3.49-5.2-5.11h0a4.53,4.53,0,0,1-.61-5.37c8.74-4.2,18.28,1.93,27-2.1.85-.86,1.69-1.71,2.48-2.64a17.44,17.44,0,0,1,2.79-2.5,24,24,0,0,1,10.93-3.76c4.69-.21,9.38-.43,13.94,1.06,3.07,1.34,5.93,2.91,6.45,6.69-3.74,6.33-10.38.54-14.79,3.73,6.77-2.7,11.91,1.94,17.65,4.18a11.1,11.1,0,0,1,4.27,3.25h2.59c2.78,2,.62,5.55,2.59,7.76Z" style="fill: #e64444"/>
    <path d="M311.29,578.29h-5.18c-2.34-3.31-.55-5.56,1.94-7.65,10.24-5,20.44-10.58,31.79-2.72a23,23,0,0,0,13.05-2.46c-3.67,8.59-11.54,7.33-18.51,7.58C326.29,573.31,318.12,572.68,311.29,578.29Z" style="fill: #cb4239"/>
    <path d="M316.47,586.08c-6.67-.64-1.72-5.17-2.59-7.76h12.86C325.5,584.52,318.6,582.05,316.47,586.08Z" style="fill: #d94039"/>
    <path d="M241.14,575.74c3.31.1,5.07,1.77,5.2,5.11l-4.64,2C241.51,580.47,241.33,578.1,241.14,575.74Z" style="fill: #e04448"/>
    <path d="M402.25,505.79l-5,5.57c-1.88-1.57-2.19-3.66-2-5.93.78-4.17,2.55-8,4.16-11.91s4.36-6.32,8.86-3.32c2.27,3.64,1.62,7-.95,10.2Z" style="fill: #dd4848"/>
    <path d="M417.69,479.56c1.23,5.56-4.41,10-2.61,15.62h-2.41c-4.53-2.27-4.88-6.27-4.41-10.62C410.22,480.67,412.07,476.54,417.69,479.56Z" style="fill: #c23430"/>
    <path d="M410.12,484.87a15.9,15.9,0,0,0,2.55,10.32c-.25,3.28-1.93,5.11-5.31,5.21V490a4,4,0,0,1-.59-5.05A2.9,2.9,0,0,1,410.12,484.87Z" style="fill: #db484d"/>
    <path d="M241.23,570.43c0,1.78,0,3.55-.08,5.32L231,573l-5.27-2.67-5.62-7c-1.06-2-3.77-3-3.48-5.79a8.65,8.65,0,0,1,3.73-6,6,6,0,0,1,3.57.14C229,558.58,241,559.06,241.23,570.43Z" style="fill: #e04448"/>
    <path d="M199.62,541.89,210,547.42a3.7,3.7,0,0,1,1.44,3.82,2.49,2.49,0,0,1-2.06,1.71l-3.75-1c-3.6-1.07-6.53-2.83-7.18-7A3.42,3.42,0,0,1,199.62,541.89Z" style="fill: #bb4041"/>
    <path d="M217.8,557.55l2.34,5.77c-5.61-1.36-8.57-5.48-10.78-10.37l.81-.76a4.3,4.3,0,0,1,3.1-1.17C216.65,551.9,217.68,554.41,217.8,557.55Z" style="fill: #bb4041"/>
    <path d="M199.51,544.56l6.09,7.4c-3.12.3-6.32.94-8.56-2.19,0-1.73.08-3.45.13-5.17a1.35,1.35,0,0,1,1.83-.53A1.41,1.41,0,0,1,199.51,544.56Z" style="fill: #441211"/>
    <path d="M428.14,466.61l-2.67,5.14c-2.82,1.45-5.18,1.94-5.12-2.51-.32-1.84-.53-3.71-.7-5.55a8.87,8.87,0,0,0-1.93-3.42,2.19,2.19,0,0,1-.59-1.57q0-.87.18-.87,2-5.77,4-11.54c4,3.81,6.69-1.32,10.88-1.86.54,6.37-5.33,11-4,17C429.76,463.16,429.65,464.88,428.14,466.61Z" style="fill: #c33b3b"/>
    <path d="M422.92,464c0,2.15-.55,4.05-2.57,5.21l-5.11,2.68c-2.2,4.06-4.17,9.07-9.1,2.26a4.41,4.41,0,0,1,1.27-4.81l9.9-11.53a3.64,3.64,0,0,0,.64,1.4A53.54,53.54,0,0,1,422.92,464Z" style="fill: #db484d"/>
    <path d="M407.44,474.44c4.7,5.64,4-5.29,7.8-2.52.82,2.55,1.64,5.09,2.45,7.64-3.91-.2-5.07,3.5-7.57,5.31h-2.69c-2.83-1.91-3.63-4.77-3.73-8C404.25,475,405,473.47,407.44,474.44Z" style="fill: #dd4848"/>
    <path d="M423,490c-1.92.06-2.13,4.33-4.64,2.1-.56-.5.12-3.57,1.12-4.42,3-2.56,3.15.27,3.53,2.32Z" style="fill: #c8332c"/>
    <path d="M199.51,544.56h-1.17l-1.17.09-5.57-3c-2.29-6.15,2.33-4.58,5.35-4.79l2.67,5C199.58,542.78,199.55,543.67,199.51,544.56Z" style="fill: #992820"/>
    <path d="M181.53,305.71c6.24-5.85-.44-14.85,5.07-20.88,4.63,3.57,2.72,9.4,4.83,13.83.86,2.26,1.59,4.56,2.36,6.84,1.91,6.4,8.89,6.29,12.91,10,4.65,2.43,8.79,5.1,5,11.27-3.23,2.74-5.42,5.87-3.85,10.42.74,3.94.61,7.9.72,11.87.35,8.79.1,17.58,0,26.36-.34,5.21.66,10.62-2.4,15.4a5.54,5.54,0,0,1-5.75,1.68c-5.69-3-1.46-10.2-5.22-14,3.39,4.29,2,8.61-.08,13-1.88,1.23-3.71,1.37-5.48-.19,2.83-9.57-8.88-13.43-8.49-22.88.39-9.64,2-19.8-2.11-29.29a11,11,0,0,1-6.79-4.92,22.76,22.76,0,0,1-1.94-6.07c-1-1.71-2.19-1-3.47-.31-13.63,6.41-21.63,3.57-25.3-8.89a9.2,9.2,0,0,1,4.62-3.62c5.23-2.43,10.39-5.14,16.41-4.93,6.47-.89,13.41.13,18.92-4.68Z" style="fill: #e84546"/>
    <path d="M142.58,334.77c-6.27-3.28-11.49,3.29-17.57,1.87-3.47-2.77-2.64-7.41-4.87-11-3.67-5.93-1.7-11.32,6.33-12.52l1,.85c2.35,3.62,2.92,8.32,9.11,8.87,5.91.53,9.29,5,9.17,11.35A2.42,2.42,0,0,1,142.58,334.77Z" style="fill: #9c3230"/>
    <path d="M142.58,334.77l2.51-.72c9.52-1.62,19-4.25,28.58-.14,3,.55,6,1,5.39,5.24l-.51,1a6.7,6.7,0,0,1-4.9,1.86C163.86,337.15,151.59,343,142.58,334.77Z" style="fill: #261214"/>
    <path d="M126.47,313.09c-11,7.2-.87,15.71-1.46,23.55-13.39-17.52-13-22.36,2.26-28.08C127,310.08,126.74,311.58,126.47,313.09Z" style="fill: #19160f"/>
    <path d="M189.66,391.32l4.74.08c1.71-1.87,3.48-.42,5.23-.11l5-.09c2.43,2.69,2.44,5.28-.33,7.75l-14.3-.49Q189.81,394.89,189.66,391.32Z" style="fill: #b44647"/>
    <path d="M148.34,303.34c-5.68,7.42-14,4.07-21.25,5.25C132.92,301.77,140.92,303.74,148.34,303.34Z" style="fill: #19160f"/>
    <path d="M173.65,342a3.82,3.82,0,0,1,4.91-1.86c-.44,2.88,2,7.45-2.67,7.92C173.15,348.33,174,344.26,173.65,342Z" style="fill: #0f1811"/>
    <path d="M402,277.48c.55,6.26-2,13,2.92,18.6-.36,2.48-2.11,3.33-4.29,3.7-14-2.16-11.5-15.83-16.77-24.11-1.08-6.55-2.45-13.14,2.56-18.86a4.58,4.58,0,0,1,.3-1.46c4.43.18,5,3.91,6.35,6.87a17.9,17.9,0,0,1,.75,2.9c.26,1.19.41,2.48,1.7,3.15a9.89,9.89,0,0,1,3.92.65C401.94,271.29,399.9,275,402,277.48Z" style="fill: #772a2c"/>
    <path d="M402.15,297.94l2.75-1.86,23.29-3.78c6.86-2.78,14.26,2.13,21.06-1.54,3,.14,5.44,1,6.05,4.42a4.52,4.52,0,0,1-1.39,3.82c-3,2.23-6.54,2.35-10.07,2.47-4.7.07-9.4,0-14.1,0-1.92,0-3.84,0-5.76.1-5.1.16-9.63,2.69-14.55,3.62-3.46.34-6.63,0-8.32-3.65A3.89,3.89,0,0,1,402.15,297.94Z" style="fill: #ac3a38"/>
    <path d="M449.14,292.67c-7.09,6.08-13.94-1.6-20.95-.37,8.3-3.19,17.1-3.82,25.8-4.95l.32.43C455.21,292.18,450.41,290.57,449.14,292.67Z" style="fill: #2b1211"/>
    <path d="M402,277.48l-4.77-8.5c-4-4.14-3.91-9.06-2.72-14.2A19.26,19.26,0,0,1,397,251.2C405.15,258.72,401.38,268.51,402,277.48Z" style="fill: #181513"/>
    <path d="M397,251.2c0,.55.06,1.1.08,1.64-2.5,3.41-.59,7.6-2,11.21a3,3,0,0,1-3.45.52l.17-.57c-1.72-4.3-2.76-8.6,0-12.89h-.05Z" style="fill: #341214"/>
    <path d="M335.07,324.51c1.42-11.3,12.22-14.05,19.29-15.13,16-2.45,13.17-11.78,11.48-21.88l4.37-5.25,1.9,1.2c4.07,8.52,3.12,17.2.82,25.92-3.76,5.64-10.28,6.22-15.8,8.63-5.7,1-9.95,4.89-14.82,7.56C339.73,326.34,337.28,326.29,335.07,324.51Z" style="fill: #2f1212"/>
    <path d="M376.39,243.5c5.07,2.44,8.31,6.05,7.74,12.1-.18,7.44-3.23,14.24-4.87,21.34-.86,3.69-2.24,7.94-7.83,5.51l-1.21-.2,3.6-31C373.75,248.34,373.33,245.34,376.39,243.5Z" style="fill: #632523"/>
    <path d="M376.39,243.5c-.51,2.69.09,5.75-2.57,7.72-3.84-4.54-4.92-8.45,2.37-10.47C376.26,241.67,376.33,242.59,376.39,243.5Z" style="fill: #161314"/>
    <path d="M371.43,282.45c7-2,4-8.23,5.32-12.62,1.58-5.22,3.17-10.39,7.38-14.23a9.35,9.35,0,0,1,2.27,1.21l.57,20c.26,5.54,6.81,10.63,1.21,16.59-1.81-.52-4.54.57-4.21,1.76,1.49,5.44-3.09,6.55-6.05,8.92a8.51,8.51,0,0,1-4.61,7.21,2.58,2.58,0,0,1-3-1.21Q370.85,296.28,371.43,282.45Z" style="fill: #d94246"/>
    <path d="M391.8,251.11V264c-3.91-1.58-2.11-6.51-5.08-8.64C387,252.31,389,251.17,391.8,251.11Z" style="fill: #1c150c"/>
    <path d="M184.4,276.72q-.12-7.19-.25-14.35l7.67-3.44h2.67c5.64,10.79,5.17,22.43,4.85,34.06a6.69,6.69,0,0,1-2.78,3.1c-2.87.68-5.23-.34-7.3-2.26-3.3-5.22.81-11.57-2.52-16.8A9.22,9.22,0,0,1,184.4,276.72Z" style="fill: #c93c39"/>
    <path d="M196.94,295.2c.12-12.14-4.22-24-2.45-36.24,4.39-3.54,6.21,3.24,9.91,2.46v5.45c-2.59,6.09-2,12.55-2.34,18.92C201.88,289.51,204,295,196.94,295.2Z" style="fill: #e24947"/>
    <path d="M173.67,333.91c-9.52,2.11-19,2.91-28.58.14-3.23-3.18-3.7-9.27-10.72-8.33-10.59,1.41-8.24-5.7-6.92-11.78a7.35,7.35,0,0,1,2.06-.58,2.48,2.48,0,0,1,3-.48c2.9,2.68,7.45,2.5,10,5.77,6.51,12.37,15.64,11.71,25.94,5.2,2.3-.28,3.78,1.07,5.17,2.59C173.65,328.93,173.66,331.42,173.67,333.91Z" style="fill: #d84744"/>
    <path d="M163.37,313.37c-6.41-1.76-10.37,3.78-15.69,5.27a5.42,5.42,0,0,1-1.79-4.76,6.51,6.51,0,0,1,1.9-2.91c4-2.64,8.48-2.74,13-2.73a2.15,2.15,0,0,1,3-.29l.18.17A4.44,4.44,0,0,1,163.37,313.37Z" style="fill: #d84744"/>
    <path d="M163.37,313.37c-.05-1.72-.09-3.43-.14-5.14,4.11-1.5,8.74-.15,12.73-2.34l5.55-.16C178.59,315.71,170.44,313.26,163.37,313.37Z" style="fill: #b43939"/>
    <path d="M176,305.89c-3.75,3.48-8.06,3.9-12.73,2.34h-2.43C165.26,303.62,170.84,306.24,176,305.89Z" style="fill: #c6485e"/>
    <path d="M147.79,311c-.07.8-.12,1.6-.13,2.41-5.13,3.52-10.29,3.65-15.49.13l-2.66-.15C135.11,308.78,141.67,311.57,147.79,311Z" style="fill: #b8393c"/>
    <path d="M186.74,277.06c4.94,4.57,1.24,10.61,2.68,15.77,1.86,2.65,2.11,5.2-.41,7.61-4.23-4.68-1.59-10.41-2.4-15.61Q186.67,280.95,186.74,277.06Z" style="fill: #e74c51"/>
    <path d="M378.84,485.1l13-10.75c5.1-2,9.7-5.43,15.57-5v5.07c-.86.87-1.71,1.74-2.56,2.62.71,5.94-4.85,6.65-7.87,9.49-6.24,1-11.42,7-18.52,4A4,4,0,0,1,378.84,485.1Z" style="fill: #963d41"/>
    <path d="M282.76,427.47h-10c-3.89-5.38-10.81-8.81-10.73-16.73,2.48-4.28,2-9.2,3-13.82h-.11c1.84-2.28,4.15-2.47,6.71-1.52,4.47,5.81-.42,14.29,5.64,19.64C280.07,418.75,284.89,421.58,282.76,427.47Z" style="fill: #a43236"/>
    <path d="M394.4,412.35c-3.08.69-7,4.22-7.85-2.44,2.53-3.4,1.28-8.2,4.23-11.44,5-3.09,7.73-8.31,11.7-12.38,4.18,5.3,2.45,10.44-.42,15.55a16.2,16.2,0,0,0-2.7,5.05c-.85,1.78-1.69,3.57-2.54,5.35C396,412.12,395.2,412.22,394.4,412.35Z" style="fill: #501814"/>
    <path d="M321.82,427.76c-7.06,2.69-14.16,3.61-21.35.51.84-3,3.92-3.75,5.68-5.84a15.29,15.29,0,0,1,5.47-3.9c3.69.75,7.13-.19,10.52-1.58C325.68,420.67,326.7,424.3,321.82,427.76Z" style="fill: #b53135"/>
    <path d="M308.64,425.11c-1.95,3.06-5.41,2.2-8.17,3.16l-17.71-.8-7.91-10.1a6.55,6.55,0,0,1,3-2.05,10.39,10.39,0,0,1,5.47.43,44.42,44.42,0,0,0,13.6,4.16C301,421.32,305.61,421.46,308.64,425.11Z" style="fill: #d7454b"/>
    <path d="M326.81,427.67a6.86,6.86,0,0,0-2.49.49c-.84-.11-1.67-.24-2.5-.4,2.39-3.39-.37-6.86.18-10.28a6.7,6.7,0,0,1,1.46-5.74,5.64,5.64,0,0,1,4.32-1.28,4.43,4.43,0,0,1,2.49,1.68C329,417.28,330,422.94,326.81,427.67Z" style="fill: #521918"/>
    <path d="M169.15,464a10.62,10.62,0,0,0-.49,2l-3.34-1.81c-.92-1.62-3.56-2.55-2-5.13,2.48-.32-.32-7.59,5.26-3.94C172.75,457.91,172.2,460.83,169.15,464Z" style="fill: #352320"/>
    <path d="M264.54,409.52a23.3,23.3,0,0,1-2.51-.09c-.68-.5-.93-1-.76-1.6s.38-.87.59-.87q.09-5.13.19-10.26l3,.26C267.13,401.24,267.28,405.43,264.54,409.52Z" style="fill: #4b1918"/>
    <path d="M163.27,459.08l2,5.13-7.48-.28.15-5.07Z" style="fill: #c33f44"/>
    <path d="M402,300.8c2.1,2.66,5.06,2.09,7.86,2.1,3-1.87,6.54-.79,9.7-1.76a7.25,7.25,0,0,1,3.53,1.42c1,7.27-4.32,5.43-8.31,6.12-4.65.8-9.14,2.72-12.21,1.1,6.81.73,15.09-.4,23.28-2.87,5.64-1.71,12.21-5.33,16.9,0,4.89,5.58-2.67,9.87-3.87,15a2.16,2.16,0,0,1-.86,1.79c-11.79,1.08-24.25-1.47-34.79,6.39a13.87,13.87,0,0,1-5.26,2,27.52,27.52,0,0,0-12,3.5,5.77,5.77,0,0,1-6.26-2.84c-2.06-6.53-2.75-12.44,5.06-16.13,4.69-2.22,2.15-7.87,4.33-11.44a11.33,11.33,0,0,1,2.12-3.09A11.63,11.63,0,0,1,402,300.8Z" style="fill: #ec4547"/>
    <path d="M381.39,331.65c1.15,2,3,2.5,5.15,2.5,2.64-3.43,7.86-1.56,10.45-5.09l5.15-.08c1.63,1.69.17,3.59.37,5.37-.57,17.25-4.83,34.49,0,51.74.82,7.8-3.24,11.94-10.34,13.8-6.31-7.73,1.22-15.27.81-23.19-.49-9.31-.8-16.42-9.47-21.59-5.91-3.53-8.84-9.28-8-16.5C376.37,335.36,376.34,331.34,381.39,331.65Z" style="fill: #d64343"/>
    <path d="M438.91,321.9c-5.08-5.75,3.74-8.64,3.12-14.35-14.36,0-28.16,7.71-43.46,2.4,8.48-4.14,18,.29,24.38-6.87.53-.65,1.84-1.23,1.81-1.42-.44-2.74,9.44,3.64,3.39-3.81l15.62.27c-1.62,6.34,4.08,1,5.08,3.16a11,11,0,0,1,5.65,3.84c1.09,3.53-1.53,5-3.7,6.76-1.56,1.35-3.6,2.2-4.49,4.26-.87,1.62-1.74,3.24-2.59,4.87Z" style="fill: #d3403f"/>
    <path d="M402.51,334.35c-3.08-1.58-.71-3.54-.37-5.37,10.78-9.84,23.26-8.19,35.91-5.29-6.56,5.61-14.92.27-22,3.72C411.46,329.63,406.39,330.8,402.51,334.35Z" style="fill: #cc4640"/>
    <path d="M399.36,406.69c-1.24-2.83-1.46-5.11,2.71-5.05,2.18,1.74,3.57,3.92,1.31,6.29C402,409.41,400.41,408.13,399.36,406.69Z" style="fill: #0f0f10"/>
    <path d="M443.71,427.72c-4.14,10.48,9.09,6.94,10.47,13L454,441c-5.6,5.08-11.1,7.33-16.25-.55-2.35-3.67.77-7,.61-10.59C439.82,428.41,440.41,424.68,443.71,427.72Z" style="fill: #491d1e"/>
    <path d="M451.55,404.45c2.21,1,2.49,2.89,2.32,5l-5.17,7.67C444.63,410.91,450.24,408.2,451.55,404.45Z" style="fill: #51383b"/>
    <path d="M438.32,429.87c3.82,2.64,1.17,5.44.21,8.2-.75,1-1,2.47-2.61,2.58l-2.51-2.34.48-4.95Q436.11,431.62,438.32,429.87Z" style="fill: #853039"/>
    <path d="M435.92,440.65l2.61-2.58c3.7,8.57,10.12,2.86,15.43,2.94,0,1.6.05,3.2.07,4.8l-5.09,5.09C443.14,449.33,433.1,453.16,435.92,440.65Z" style="fill: #792121"/>
    <path d="M428.14,466.61v-5.17c4-2.45,8.43-2.79,13-2.67a1.62,1.62,0,0,1,.58,1.67c-.18.56-.36.84-.55.84Z" style="fill: #b33532"/>
    <path d="M441.14,461.28a13.16,13.16,0,0,0,0-2.51c.47-2,1.29-5.18,3.56-3.33,3,2.44,1.87,6-.85,8.74Z" style="fill: #c45759"/>
    <path d="M454.1,305.66c-2-.12-3.91-.44-5-2.42.95-2.46,3.32-3,5.35-4,3.67-3,8.87-1.4,12.61-4.2.88-1.78,2.62-2.79,4-1.41,2.49,2.56-.44,4.56-1.43,6.72-7.94,2.71-2.72,11.63-7.47,15.84-1.11-2.24-3.17-2.75-5.41-2.91a3.6,3.6,0,0,1-1.39-2.37C455.45,309,455.67,307.14,454.1,305.66Z" style="fill: #ac3a38"/>
    <path d="M449.14,292.67c1.72-1.63,3.44-3.27,5.17-4.89h8.48l-6.12,6.83c-.6,1.29-1.37,1.34-2.28.31Z" style="fill: #623638"/>
    <path d="M454.39,294.92a3.25,3.25,0,0,0,2.29-.31L467,295c-3.32,4-8.33,4-12.73,5.4-.75-.52-1-1.08-.85-1.69s.4-.93.63-.93Z" style="fill: #c95257"/>
    <path d="M456.71,310.85v2.42l-10.38,2.87c-3-3.68.9-4,2.6-5.39C451.53,309.24,454.13,308.77,456.71,310.85Z" style="fill: #ae2f29"/>
    <path d="M215.06,391.31v2.55l-4.93,2.54c-5.93-5.81.28-14.65-5.16-20.58l-.08-28.54a4.39,4.39,0,0,1,4.76-1.37,5.22,5.22,0,0,1,3.19,4c2.38,8.48-4,17.75,2.35,25.88C217.14,381,215.32,386.13,215.06,391.31Z" style="fill: #471619"/>
    <path d="M205,375.82c10,4.79,2.83,13.87,5.16,20.58l-5.89,2.6.33-7.75Q204.8,383.53,205,375.82Z" style="fill: #29190e"/>
    <path d="M215.25,520.9l15.14.62a3.91,3.91,0,0,1,1.7,3.17,5.26,5.26,0,0,1-1.91,3.13c-3.43,1.91-7.08,1.73-10.75,1.12-4-1.22-7.13.3-9.88,3.08-3.94-1.15-5.51-3.89-4.09-7.59C207.24,519.81,212,522,215.25,520.9Z" style="fill: #943f34"/>
    <path d="M212.85,552.24h-2.68c-.07-1.59-.14-3.18-.2-4.77.46-3.67,2.14-7.32.28-11.06a4.54,4.54,0,0,1,4.85-.36c3.73,2.77,6.31,6.63,9.44,10,1.37,2,2.48,4.13,1.42,6.68a1.91,1.91,0,0,1-2.7.06,1.74,1.74,0,0,1-.3-.37c-.86,0-1.71,0-2.56,0C217.88,554.86,215.39,550.3,212.85,552.24Z" style="fill: #c74647"/>
    <path d="M214.68,537.34l-4.43-1c-.23-1.46-.46-2.91-.7-4.35-1.3-8,3.55-6.73,8.35-5.55,1.61,1.26,3.54,2.31,3.32,4.83a12.51,12.51,0,0,1-3.74,4.9A5.42,5.42,0,0,1,214.68,537.34Z" style="fill: #702321"/>
    <path d="M186.68,492.69,179,487.24l-.18-7.59a4.1,4.1,0,0,1,3.78-.59C191.86,486.44,192.15,487.41,186.68,492.69Z" style="fill: #b9332f"/>
    <path d="M168.5,492.58c-.89-2.6-1.77-5.21-2.66-7.81l-2.61-5.09c6.19,2.07,10.57,5.61,10.42,12.83Z" style="fill: #e54747"/>
    <path d="M168.3,466.89c4.13.92,6,4.31,8,7.43C170.58,475.18,168.07,472.52,168.3,466.89Z" style="fill: #ab373d"/>
    <path d="M181.47,479.69h-2.7c-2-1.24-2.53-3.13-2.4-5.32l7.61.05.09.12a2.34,2.34,0,0,1,.91,2.6A4.45,4.45,0,0,1,181.47,479.69Z" style="fill: #ab373d"/>
    <path d="M181.47,479.69l2.32-2.57c4.51-.41,8.23,1.3,11.49,4.27,2.74,5.21,7.59,8.88,10.42,14.05a4,4,0,0,1-1.21,3.27,4.86,4.86,0,0,1-5.15-.82l-5.11-.42-7.55-4.78C192,485.55,182,484.49,181.47,479.69Z" style="fill: #df4746"/>
    <path d="M231.26,505.32a2.23,2.23,0,0,1,2.07.38c1.37,2.82-.25,4.12-2.57,5.07l-5.1,2.59c-.25-3.25-2.1-5.28-5-7.26Z" style="fill: #ef4557"/>
    <path d="M199.34,497.89l5.43-.11a3.32,3.32,0,0,1,2.68,2.67l5.45,4.14-5.64,1.15Z" style="fill: #e45252"/>
    <path d="M207.45,500.45l-2.68-2.67v-2.22a1.53,1.53,0,0,1,2-.75,1.56,1.56,0,0,1,.59.49c3.77,3.82,10.19.3,13.67,4.93Z" style="fill: #d24a50"/>
    <path d="M241.17,521.22l.05-2.71a8.51,8.51,0,0,1,5.24-2.6,14.89,14.89,0,0,1,4,.11c6.22,2.37,13,.81,19.3,2.76a7,7,0,0,1,3.1,2.42c-2,8.25-9.81,4.73-14.63,7.31a19.91,19.91,0,0,1-3.9.75,18.25,18.25,0,0,1-7.86-.91C243.63,526.75,240.12,525.66,241.17,521.22Z" style="fill: #e8474d"/>
    <path d="M241.17,521.22l5.26,4.72c-1.69,2.76-4.39,3.29-7.31,3.36a8.91,8.91,0,0,1-8.27-5.55c-.12-.75-.27-1.49-.46-2.23C234,521,237.64,523.71,241.17,521.22Z" style="fill: #e1453f"/>
    <path d="M246.25,518.33l-5,.18c-2.76-3.29-6.66-2.25-10.17-2.68a17.52,17.52,0,0,1-.18-2.29c3.48-3.42,7.5-3.78,11.9-2.16C245.47,512.92,247.22,514.94,246.25,518.33Z" style="fill: #b72d2a"/>
    <path d="M243.68,513.54H230.87c0-.92-.07-1.84-.11-2.77q1.29-2.53,2.57-5.07l7.58.42c2.07,1.75,5.28,2.16,6.15,5.3C246.58,513.17,245.89,514.56,243.68,513.54Z" style="fill: #d44349"/>
    <path d="M355.39,560.17l-5.16,2.56c-4.76-2.87-11.08-.37-15.49-4.48-1.83-4,1.42-5.49,3.66-7.5,4.19-2.32,8-5.57,13.19-5.59,4.89.86,11.18-.48,11.75,7.32Z" style="fill: #cd4540"/>
    <path d="M391.55,523.57c-4.74,3-6.28,7.92-7.84,12.84-6,0-6.8,7.79-12.45,8.34-6-.74-3.83-5.09-3.77-8.52,1.18-2.72,3.27-4.7,5.37-6.68,3.75-2.9,5.26-7.94,9.69-10.21,3.26-1,6.31-1,8.8,1.78A15.47,15.47,0,0,1,391.55,523.57Z" style="fill: #e2484a"/>
    <path d="M368.42,536.76l2.83,8-7.91,7.73c-2.21-4.46-8.18-1.87-10.72-5.71a4.18,4.18,0,0,1-.95-3.29,7.18,7.18,0,0,1,3.46-3.93C359.43,538.05,363.32,534.5,368.42,536.76Z" style="fill: #e24043"/>
    <path d="M391.35,521.12l-9.93.06c-4.15,2.63-5.91.31-7-3.37.32-8.53,9.38-9.24,13.14-14.72,3.09-2,5.84-1,8.48,1,.34.51.68,1,1,1.53l.24,5.76C397.08,515.69,393.22,517.8,391.35,521.12Z" style="fill: #eb4749"/>
    <path d="M334.05,557.17c5.18,2.48,13.39-3.87,16.18,5.56l-10.39,5.18c-10.86-1.11-21.17,1-31.15,5.19-2.33-1.16-4.11-2.61-3.05-5.62,2.06-2.31,5-3.11,7.66-4.36,5.37-2.09,10.26-5.29,15.78-7.1A5.59,5.59,0,0,1,334.05,557.17Z" style="fill: #e14149"/>
    <path d="M225.61,552.27l-2.73-4.85c1.23-2.83,4-3.95,6.26-5.69a7.65,7.65,0,0,1,3.29-1c4.68.47,8.82,2.7,13.22,4.11a20,20,0,0,1,3.13,1.59c7.56,5.91,15.74,9.87,25.73,8.28,4.49-.54,9-1,13,1.84,3,5.7-3.39,3.94-4.85,6.11l-10.29,2.78a29.64,29.64,0,0,1-10.54.3c-4.19-.55-7.75-2.67-11.42-4.5-2.66-1-5.25-2.23-7.86-3.37-4-1.83-8-3.61-12.57-3.51A5.44,5.44,0,0,1,225.61,552.27Z" style="fill: #aa3a3b"/>
    <path d="M225.61,552.27l5.2.12c4.07,2,8,4.57,12.9,2.69l7.71,2.6c-.2,5,2.4,7,7.13,8.09s10.09.59,13.78,4.74c-10.38,5.16-20.74,2.53-31.1-.08-3.62-8.51-15.86-8.32-18.24-18.07Z" style="fill: #dd3b38"/>
    <path d="M272.33,570.51c-7,1.07-13.5-1.51-20.12-2.9-10.62-2.23-5.5-6.21-.79-9.93L262,563c2.68,3.28,7.79,1.45,10.36,5C272.31,568.78,272.32,569.65,272.33,570.51Z" style="fill: #d64340"/>
    <path d="M306.05,568l2.64,5.11c-2,1.16-2.53,3-2.58,5.18-7.34-.34-11.5-11.39-21.07-4.85,5.39-7.45,12.34-4.81,18.48-5.54a1.63,1.63,0,0,1,2.3-.15A1.79,1.79,0,0,1,306.05,568Z" style="fill: #d64241"/>
    <path d="M282.64,562.67l5.34-5c2.54-3.13,5.8-3.06,9.27-2.12a6.6,6.6,0,0,1,4.38,6.21c-.54,1.56-1.55,2-3,1.17Z" style="fill: #d64241"/>
    <path d="M298.63,563l2.81-.56c2.79-2.86,6.12-2.87,9.65-1.83,2,1,3.48,2.21,2.81,4.74-1.9,3-5,2.51-7.85,2.67l-2.53-.1Z" style="fill: #ef4152"/>
    <path d="M272.31,567.92c-4-.45-9.27,1.62-10.36-5,3.62.21,7.64-1.28,10.4,2.5C272.35,566.27,272.33,567.1,272.31,567.92Z" style="fill: #d14643"/>
    <path d="M396.89,484.7c.13-5.19,5.95-4.45,8-7.64,2.88,1.92,2.42,4.94,2.55,7.77,0,1.72-.06,3.45-.08,5.17-8.42,1.9-3.76,12.46-10.33,15.59H397c-1.12-1.25-2-2.76-3.17-3.91C383.05,491.19,383,491.21,396.89,484.7Z" style="fill: #ef4244"/>
    <path d="M212.85,552.24c2.56-4,5.05-.47,7.58.08-.08,2.14-.61,4.06-2.63,5.23Z" style="fill: #ef4554"/>
    <path d="M422.92,464c-3.11-.09-5-1.5-5-4.79C424.72,455.53,422.32,461.34,422.92,464Z" style="fill: #ef3c49"/>
    <path d="M196.94,295.2c6.65-8.34-1.7-20.66,7.5-28.33q.39,22.85.79,45.7c1.19,2.11,1.26,4.14-.45,6-3.61-5.14-14.8-2.76-13.11-13.18.37-.42.74-.83,1.08-1.26,2-1.62,1.77-3.65,1-5.77a2.92,2.92,0,0,1,1.06-2.88C195.52,295.38,196.22,295.28,196.94,295.2Z" style="fill: #ef4859"/>
    <path d="M215.22,314.2l7.42,2.06a16.68,16.68,0,0,1,4.21,2.57c1.78,4,4.73,7.12,7.35,10.53a4.3,4.3,0,0,1-.88,3.19c-4.36,2.93-10.49,1.67-14.23,6.07-5.61,1.93-10.17.44-13.77-4.2-5.56-6.85.8-6.68,4.69-8C220.78,326.22,211.24,317.33,215.22,314.2Z" style="fill: #dd4642"/>
    <path d="M205.32,334.42l14.79,2.32c2.84-2.4,5.6-2.46,8.24.29.78,5.55-5.39,5-7.23,8.25a10.07,10.07,0,0,1-2.92,1.53,45.92,45.92,0,0,1-8.12.34l-5.16.13Q205.13,340.86,205.32,334.42Z" style="fill: #973232"/>
    <path d="M215.22,314.2c.55,4.6,8.5,7.48,3.55,13.11-2.54,2.89-6.09,2.12-8.76-.85,2.82-5.66-.2-7.42-5.23-7.86l.45-6Z" style="fill: #e74348"/>
    <path d="M199.63,391.29c-1.69,2.76-3.48.51-5.23.11V372.93C201.59,379.73,198.88,385.92,199.63,391.29Z" style="fill: #ef4752"/>
    <path d="M132.17,313.51l15.49-.13v5.26H142.5C139.33,316.42,131.58,323.37,132.17,313.51Z" style="fill: #e74044"/>
    <path d="M191.37,317.88c3.84,6.5,3.65,10.49,1.21,15.44C187.34,329,189.24,324.71,191.37,317.88Z" style="fill: #ef4550"/>
    <path d="M194.81,295.51a10.4,10.4,0,0,0-.05,2.3c2.17,3.81.58,6.13-3,7.66l-.07-.05-2.66-5c.14-2.54.27-5.07.41-7.61A5.23,5.23,0,0,1,194.81,295.51Z" style="fill: #a33524"/>
    <path d="M173.63,326.44c-2.11-.08-4-.6-5.17-2.59.53-1.76.41-4.68,3.23-3.67S173.41,324.19,173.63,326.44Z" style="fill: #e44b45"/>
    <path d="M402,300.8l-10.26,2.35c-10.3.77-7.87-4.69-5.06-10.34,5.52-5.24-2-10.68.26-16,6.88,5.72,2.2,19.77,15.18,21.1Z" style="fill: #b23d35"/>
    <path d="M394.08,263.87c.54-3.79-.5-8,3-11q.07,8.06.16,16.13l-2.82,2.91C392.28,269.29,392.85,266.59,394.08,263.87Z" style="fill: #7f3740"/>
    <path d="M394.08,263.87c.11,2.67.21,5.35.31,8-6.44,3.63-4.3-.59-3.44-3.73.32-1.17.44-2.4.66-3.6C392.42,264.29,393.25,264.06,394.08,263.87Z" style="fill: #67191c"/>
    <path d="M454.09,297.81c.07.87.15,1.75.22,2.62l-5.23,2.81c-2.65-.77-5.85,1.19-7.95-1.43-.26-.32,1.71-2.42,2.64-3.69Z" style="fill: #ef404e"/>
    <path d="M428.15,297.85l7,5.23h-14.8c-1.67-3,1-3.74,2.61-5.07Z" style="fill: #ec494f"/>
    <path d="M423,298l-2.61,5.07-10.5-.17C413.78,300,418.35,298.89,423,298Z" style="fill: #d3403f"/>
    <path d="M329.31,396.61c4.2,5.18-.87,10.28-.12,15.43l-4.64.16a6.28,6.28,0,0,1-6.77,1.44c-5-4.07.84-6.93,1.12-10.4,0-2.8-1.76-3.3-4.08-3a14.6,14.6,0,0,1-3.3.32c-5-1.34-12.26,0-11.06-8.95-.16-1.1-.25-2.6-1.72-2.49-1.69.13.28-1.05,0,.58-.2,1.17-.13,2.25-1.13,3.09-8.27,4.94-16.43,3.75-24.54-.39-.47-.31-.94-.64-1.41-1,.44-13.74,12.17-7.69,18.73-10.7,7.41-1.73,14.68-2.08,21.43,2.3,3.46,3.86,7.93,6.21,12.63,8.18Z" style="fill: #d33f3f"/>
    <path d="M311.35,386.12c-6.05-5.44-13.51-5.39-21-5.39,10.49-3,21.11-6.77,28.72,5.43C316.51,388.46,313.93,388,311.35,386.12Z" style="fill: #6a1b23"/>
    <path d="M337.45,333.63l-2.68.53c-3.43-3.33,0-6.44.3-9.65l6.61-1c3.1-.89,5.79-2.74,8.83-3.78,9.24,1.67,5.11,5.65,1.06,8.47S341.88,331,337.45,333.63Z" style="fill: #c43439"/>
    <path d="M210.08,347.15c2.08-2.89,5.11-2.42,8-2.28,6.72.6,14.21-4.37,20,2.74-8,5-16.91,1-25.3,2.27Z" style="fill: #613736"/>
    <path d="M215.06,391.31c-3.18-5.21-.87-10.38.16-15.55,0-2.11.49-4,2.55-5.11h0L217.9,381C217.46,384.54,219,388.67,215.06,391.31Z" style="fill: #312a29"/>
    <path d="M230.83,313.44h15.53l-5.18,5.11a4.92,4.92,0,0,1-3.17,4,6,6,0,0,1-6.36-2.33c-1.38-2.09-2-4.28-.87-6.71Z" style="fill: #161811"/>
    <path d="M238.65,321.08l2.53-2.51a3.29,3.29,0,0,0,2.09.33c6.7,1.49,8.07,4.41,2.47,9.2a7.33,7.33,0,0,1-2.71,2.29,5.53,5.53,0,0,1-5-1C236,326.43,237.47,323.77,238.65,321.08Z" style="fill: #c1595d"/>
    <path d="M238.17,347.61c-6.54-2-13.91,2.18-20-2.74q1.08-.15,2.16-.36a33,33,0,0,1,19.42-3.73c.54.43,1.06.86,1.59,1.3Z" style="fill: #321412"/>
    <path d="M311.35,386.12h7.76l5.34,5C319.35,391.39,314,392.19,311.35,386.12Z" style="fill: #993130"/>
    <path d="M244.1,329.22c1.85-3.61,6.3-7.43-.82-10.32,2.87-.19,6.28-1.1,7.63,2.43,1.51,4-1.62,6.06-4.29,8.13a1.62,1.62,0,0,1-2.28.06A1.76,1.76,0,0,1,244.1,329.22Z" style="fill: #4c1818"/>
    <path d="M244.1,329.22q1.26.06,2.52.24c-1.64,4.26-2,9.07-5.32,12.61l-.46-.24c-2-1.32-3.93-2.61-3.79-5.4.23-4.32,4-5.34,6.79-7.27Z" style="fill: #2a1b14"/>
    <path d="M271.78,396l-6.87.92c.73-3.69,3.08-5.42,6.75-5.5l1.19-.29C274,393.09,273.67,394.72,271.78,396Z" style="fill: #4b1918"/>
    <path d="M230.78,313.51l2.52,5.21c-2.64,2.13-5.2,2-7.68-.27l-3-2.19Z" style="fill: #291711"/>
    <path d="M355,315.38l15.26-5.27.93.8a3.71,3.71,0,0,1,.37,3.68,12.58,12.58,0,0,1-11.34,6.69,9.8,9.8,0,0,1-5.41-2.21A3.33,3.33,0,0,1,355,315.38Z" style="fill: #cf4d4e"/>
    <path d="M355,315.38c.09,1.07.18,2.13.26,3.2-1.06,2-3.81.92-4.94,2.76-2.33,2.93-5.51,2.45-8.65,2.16C345.1,319.09,349,315.51,355,315.38Z" style="fill: #ad464b"/>
    <path d="M371.06,313.48c0-.86.07-1.72.15-2.57l5-5.2c5.17-1.39,10.33-3.13,15.54-.14-.37,3.73-1.56,7.33-.34,11.23.71,2.27.35,6.4-3,5.35-12.6-4-4.75,6.39-7.05,9.5-2.94,1.9-2.49,4.93-2.61,7.77-4.47,6.2,1.86,15.66-6.63,21.52-3.56-3.83-2.59-7.77-1.58-11.71,0-2.26,0-4.52.08-6.78-1.64-6.09-6.6-5.42-11.25-5.7a56.67,56.67,0,0,1-14.85-2.39c5.21-8,14.56-8.08,22.08-11.64C373.93,322.44,371.71,317.58,371.06,313.48Z" style="fill: #e94a46"/>
    <path d="M391.74,305.57c-5.18-.69-10.33,3.55-15.54.14v-13c4.51,1.4.89,6,4.74,7.77.26-5.17.51-10.05.82-16.17l4.95,8.53c.34,4.11-1.72,9.38,5.06,10.34Z" style="fill: #dd3a3a"/>
    <path d="M325,506c9.93,1.54,18.76-2.91,28-5.18,3.15,1.11,4.13,3.34,3.37,6.48-8.55,9.78-22,5.64-32,11.3a9.06,9.06,0,0,1-5.93-2.25C314.94,509.34,319.24,507.23,325,506Z" style="fill: #c13f44"/>
    <path d="M325,506a9.91,9.91,0,0,0-6,9.91,7.75,7.75,0,0,1-3.32,2.56c-4.78,1.52-9.74.91-14.62,1.16-4.75-.36-9.88.5-13.4-4-1-4.57,3.59-2.82,5.11-4.54C304.44,515.45,313.54,503.34,325,506Z" style="fill: #371612"/>
    <path d="M292.75,511.13,288,513.54c-7.56,7.29-16.08,2.64-24.28,2a5.43,5.43,0,0,1-2.64-2.84c-.24-2.45,1.74-3.27,3.26-4.42Z" style="fill: #6c2125"/>
    <path d="M262,511.08v2.39a5.34,5.34,0,0,1-3.07,3.94,8.25,8.25,0,0,1-5.13.09c-3.18-1.41-6.19-3-7.65-6.49-3-.3-4.9-1.76-5.26-4.89,4.77-.6,9.51-1,13.85,1.76C255.94,511.76,260.66,507.62,262,511.08Z" style="fill: #932830"/>
    <path d="M355.54,505.43c-.86-1.52-1.73-3-2.59-4.57,3.4-3.41,7.26-5.95,12.24-6.31a4.33,4.33,0,0,1,2.12,3C365.73,503.7,363.48,508.83,355.54,505.43Z" style="fill: #c8474f"/>
    <path d="M378.83,485.1c0,1.7-.05,3.39-.07,5.09,1.12,3.23-.61,5.15-3.1,6.71-3.47,1.37-6.7,1.06-9.6-1.43l-.87-.92Z" style="fill: #c8474f"/>
    <path d="M262,511.08c-2.25-1.46-6.81,2.33-7.28-3.2l9.62.37Z" style="fill: #8f474b"/>
    <path d="M370.57,349.23c.37,2.76.73,5.51,1.19,9,4.49-6.1.71-14.32,7-18.81-2.09,10.42,7.42,14.36,12.94,18,5.92,3.92,5.4,7.73,5.1,12.39-.66,10.14-1.11,20.36-4.68,30.07-1.44,3.57,1.72,9.72-5.59,10-14.93-17.32-17.16-38.44-17.94-60C369.27,349.7,369.92,349.47,370.57,349.23Z" style="fill: #d94341"/>
    <path d="M376.15,495.15l2.61-5c6.16-1.45,11.14-6.78,18.13-5.49.49,6.29-6.82,4-9.28,8.78,6.19,1.62,11.26,4.53,9.35,12.07L389.11,503a2.68,2.68,0,0,1-3,.73C382.6,501.12,378.51,499.14,376.15,495.15Z" style="fill: #dd4848"/>
    <path d="M271.78,396c.35-1.62.71-3.25,1.07-4.87,8.54,1.59,17.08,2,25.63.06a3.41,3.41,0,0,1,4.82-.07l.18.19c-2.15,9.82,8.8,2.8,10.26,8,5,3.36,1.37,8.59,2.77,12.74l8,.15c.11,2.23-.39,4.16-2.56,5.28-3.1,2.81-6.63,3.82-10.71,2.5-4.7,3.95-10.48,1.33-15.62,2.55-5,0-10.34.71-13-5.24-1.84-2-2.36-4.26-.92-6.74,4.24-5,11.09.66,15.34-3.79-4.14-2.62-8-1.59-11.71.62-.85.67-1.7,1.36-2.54,2.05-2.74,2-2.69,5.84-5.36,7.86l-2.66.08C268.2,411.06,269,403.68,271.78,396Z" style="fill: #e74546"/>
    <path d="M295.66,422.53c4.58-4.65,10.39-1.87,15.62-2.55l-2.64,5.13C304.1,425.35,299.68,424.93,295.66,422.53Z" style="fill: #ca3834"/>
    <path d="M282.71,409.53v7.76h-5.19c0-3.76.05-7.47,5.2-7.75Z" style="fill: #d63a39"/>
    <path d="M431.92,314c-8.18,5.73-16.6,4.11-24.19,6C414.36,315.26,421.55,312.53,431.92,314Z" style="fill: #d03a39"/>
    <path d="M397,329.06c-1,6.77-6.32,4.71-10.45,5.09C387.6,327.46,392.87,329.45,397,329.06Z" style="fill: #e14640"/>
    <path d="M456.71,310.85l-7.8-.1,5.19-5.09C457.35,306.19,460.54,306.76,456.71,310.85Z" style="fill: #c9413a"/>
    <path d="M220.82,530.93l-2.92-4.46h12.82c4,1.24,8.26,2.29,5.76,8.14a8.9,8.9,0,0,1-5.62,2.24C226.48,536.65,222.63,535.49,220.82,530.93Z" style="fill: #b63d4c"/>
    <path d="M235.75,534.15c.58-4-3.31-5.12-5-7.65,0-.91.09-1.83.13-2.75l8.06,2.92c2,2.62,8.88-1.53,7.58,5.55C243.29,535,239.85,536.38,235.75,534.15Z" style="fill: #9f3b3e"/>
    <path d="M230.88,542.22c-.52,5-4.52,4.72-8,5.2-3.61-2.65-7.13-5.37-8.2-10.09l.81-.88C222.19,534.18,226.56,538.12,230.88,542.22Z" style="fill: #781d23"/>
    <path d="M194.32,482.6l7.5,2.72c1.84,3.33,6.51,5.09,5.56,10l-2.61.26C199.08,493,194.46,489.61,194.32,482.6Z" style="fill: #ad3938"/>
    <path d="M256.63,526.23c4.19-5,11.38.06,15.64-4.68,1.23-1.73,3-2,4.93-1.74a9.82,9.82,0,0,1,6.36,6.46c0,3.8-2.63,5.41-5.58,6.77a11.1,11.1,0,0,1-3.67.43,12,12,0,0,1-3.46-1.07C266.84,528.69,260.14,531.11,256.63,526.23Z" style="fill: #db4143"/>
    <path d="M277.58,521.71l-5.31-.16a12.46,12.46,0,0,0-2.47-.64c-1.7-3-9.55,2.25-7.6-5.66,9.91-.34,20-1.73,28.83,4.59C287.33,526.15,282.37,523.3,277.58,521.71Z" style="fill: #6c2125"/>
    <path d="M262,516.05l7.85,4.87c-6.94,0-14.07,1.46-20.48-2.64-.13-4.36,2-4,4.8-2.31h5.4C260.38,515,261.19,514.94,262,516.05Z" style="fill: #973626"/>
    <path d="M256.63,526.23c5.16,1.87,12.72-3.77,15.67,5-6.17,5.8-11.89,2.29-17.63-.85a3.21,3.21,0,0,1-.74-3.88Z" style="fill: #cb4c59"/>
    <path d="M253.93,526.51a6.64,6.64,0,0,1,.34,2.34,2.5,2.5,0,0,1-.29,3.52l-.06,0c-2.69,1.42-5.18,1.39-7.32-1l-7.69-4.7,7.52-.73Z" style="fill: #6f1914"/>
    <path d="M254.12,516c-1.93.09-3.8.32-4.8,2.32h-3.07l-2.57-4.79c.83-.84,1.67-1.68,2.5-2.53C249.18,512.1,252.25,513.07,254.12,516Z" style="fill: #be3746"/>
    <path d="M340,552.73c2.13-5.16,5.66-8.4,11.53-8.44.36.82.71,1.65,1.07,2.47Z" style="fill: #461610"/>
    <path d="M376.13,516c.13,3.38,1.94,5.08,5.29,5.21-.9,4.75-1.77,9.52-7.81,10.41a2.74,2.74,0,0,1-2.92.91c-2.81-1.84-5.79-3.42-8.67-5.18a10,10,0,0,1-3.22-4.25,8.31,8.31,0,0,1,.83-7.1,7.26,7.26,0,0,1,4.9-2C368.38,514.63,372.72,512.67,376.13,516Z" style="fill: #d1403e"/>
    <path d="M370.9,531.52l2.71.07-5.19,5.17c-4.48,1.74-8.25,5.37-13.51,5a14.78,14.78,0,0,0,.45-2.46c1.59-4.29,4-7.84,8.53-9.52A6.86,6.86,0,0,1,370.9,531.52Z" style="fill: #cd4540"/>
    <path d="M376.13,516c-3.44-.73-6.89,4.5-10.33,0-1.47-3.77,1.26-5.36,3.67-7.13,3.59-1.66,7.37-3,10.74-5.16,2.05-1,4.07-2.28,6.39-.65h2.51C389.06,511.62,379.65,510.84,376.13,516Z" style="fill: #cc3831"/>
    <path d="M311.81,560.73c5.89-1,11.49-3.83,17.7-3a31.44,31.44,0,0,1-15.61,7.63l-2.79-2.7c-.76-.75-.91-1.29-.45-1.59A2,2,0,0,1,311.81,560.73Z" style="fill: #a13737"/>
    <path d="M243.71,555.08c-5.51,5.27-8.3,4.69-12.9-2.69C235.84,549.77,239.56,553.44,243.71,555.08Z" style="fill: #d64340"/>
    <path d="M311.81,560.73q-.37.94-.69,1.89l-9.69-.21-3.43-4.7,5.55-.3.09.09C305.56,560.6,309,559.88,311.81,560.73Z" style="fill: #3b1711"/>
    <path d="M191.74,305.47c1-2.55,2-5.11,3-7.66,3.51.57,5.48,2.32,4.15,6.06C197.43,308,194.57,306.87,191.74,305.47Z" style="fill: #e84546"/>
    <path d="M225.62,318.45l7.68.27c.92,2.72,3.13,2.56,5.35,2.36,2.79,2.53-.6,5,0,7.55-1.28,1.69-2.82,1.84-4.56.77C226.12,329.71,225,324.76,225.62,318.45Z" style="fill: #e74348"/>
    <path d="M228.2,339.44c-2-3.06-5.17-2.46-8.09-2.7.44-11.45,9.11-2.47,13-5.25a5.62,5.62,0,0,1,1.76,5.72C233.47,340.32,231.34,341.39,228.2,339.44Z" style="fill: #882420"/>
    <path d="M233.53,336.74c-.12-1.75-.25-3.5-.37-5.25.27-.72.57-1.41.9-2.1l4.57-.76,5.21.53-5.24,7.66C236.89,338.41,235.19,338.41,233.53,336.74Z" style="fill: #5d1d19"/>
    <path d="M233.53,336.74l5.07.08,2.25,5a45.57,45.57,0,0,1-20.56,2.68c-2-9,5.24-3.44,7.91-5.07C230.4,339.38,232.31,338.73,233.53,336.74Z" style="fill: #672422"/>
    <path d="M316.52,412.05c-4.31-3.52-1.95-8.48-2.77-12.75l.31-.36c5.86-3.34,7.26,2.24,10.06,5Z" style="fill: #d4453f"/>
    <path d="M324.12,404l-10.06-5c.23-2,.32-4.92,3.12-4.12C321.43,396,324,399.28,324.12,404Z" style="fill: #961f1e"/>
    <path d="M303.49,391.32l-5-.12c-.42-1.75-4.88-2.9-2.16-4.46C299.74,384.77,303,386.81,303.49,391.32Z" style="fill: #a62123"/>
    <path d="M368.41,323.83c-6.22,7.05-16.25,5.4-23.44,10.24-1.7,1.69-3.49,1.59-5.35.26a4.92,4.92,0,0,1-2.17-.7c1.56-7.11,7.83-6.16,12.8-7.68,3.53-1.09,5.58-3,.09-4.61,1-2.15,2.93-2.49,5-2.76l5.28.07C362.44,321.51,366.75,320.66,368.41,323.83Z" style="fill: #e2433d"/>
    <path d="M339.62,334.33l5.36-.26c6.26.06,12.59-.4,18.77.38,3.86.49,10.46.36,6.9,8C361.4,335.57,349,340.9,339.62,334.33Z" style="fill: #c74148"/>
    <path d="M368.41,323.83c-3.78,0-7.46-.06-7.83-5.18,4.45.23,6.88-3.66,10.48-5.17,8.09,2.25,6.1,8.9,3.86,13S370.88,324.36,368.41,323.83Z" style="fill: #ef4546"/>
    <path d="M386.6,503l-5.2,2.6c-3.32,2-7.83,1.65-10.43,5.14L365.8,516h-5.15c-6.77,6.38-15.82,1.75-23.26,4.86a25.61,25.61,0,0,1-5.65,2.34c-2.82.6-5.5.43-7.85-1.47-1.13-2-1.17-3.86.43-5.63,8.79-8.29,22.37-2.56,31.22-10.68,6.2-.48,9.25-4.28,10.52-10l10.1-.32C380.88,496.13,385.75,496.89,386.6,503Z" style="fill: #e34243"/>
    <path d="M324.32,516.11V521a8.49,8.49,0,0,1-5.72,3.35c-5.6.18-11.63,1.6-15.47-4.66,4.08-4.43,9.4-.86,13.3-3.36L319,516Z" style="fill: #d84343"/>
    <path d="M316.42,516.36c-2.44,3.6-7.19.84-10.91,4.3l13.8.66a2.88,2.88,0,0,1-.26,3.3,10.54,10.54,0,0,1-4.85,2.15c-4.32,0-7.57,2.14-10.3,5.31-8.55,3.76-14.84-1-21.18-5.58l-5.14-4.8c4.41-1,9.49,1.06,13.27-2.86,3.07-3.13,7.51-.33,10.79-2.5Z" style="fill: #c13f44"/>
    <path d="M301.64,516.34c-3.13,2.82-7.12,2-10.79,2.5L262,516.05a16.48,16.48,0,0,0-2.43-.12l2.5-2.46,26,.07C291.91,517.69,297.16,515.16,301.64,516.34Z" style="fill: #481515"/>
    <path d="M378,375.45c4.18,12.84,8.08,6.51,10.88-.2,6.16,9.47-4.59,12.6-2.45,19.54C378.81,390.57,376.91,384.69,378,375.45Z" style="fill: #ef444a"/>
    <path d="M282.72,406.94q10.38-12.51,20.78,0C296.57,411,289.65,410.28,282.72,406.94Z" style="fill: #e3514b"/>
    <path d="M282.72,406.94H303.5c-5.75,10.25-13.51,4.53-20.79,2.6h0C282.72,408.67,282.72,407.81,282.72,406.94Z" style="fill: #ef474d"/>
    <path d="M242.88,537.12,231.24,536c-.05-.61-.13-1.21-.23-1.8h4.75l10.84-2.78,7.58-.19c2.14,1,3.51,2.39,3,5C252.62,539.44,247.73,538.05,242.88,537.12Z" style="fill: #c53f3f"/>
    <path d="M282.72,526.5c7.5-3.91,13,8.76,20.76,2.55,3-3.32,7.46-2.27,11.06-3.79,4.54,0,8.88-2,13.48-1.47a31.39,31.39,0,0,0,5.56-.4c1.49-.62,4,0,4.39-1.58s-2.54-1.7-3.3-3.22c8.22-5.26,17.35-1.45,26-2.58v7.65c-.76,2.5-6,2-4.12,6.31a5.47,5.47,0,0,1-1,3.1c-3.83,3.91-9.25,1.17-13.49,3.3l-7.39.53c-10.3,2.48-20.25,7.43-31.33,4.5l-37.94.05a18.57,18.57,0,0,1-1.28-1.9c2.47-6.07,10-3.66,13.46-8Z" style="fill: #df4548"/>
    <path d="M277.53,531.54c-.94,8.62-8.85,5.54-13.46,8l-1.14.37-1.15-.34c-1.63-1.77-4.46-3.16-2-6.25,4.83-1.68,10.15,1.16,14.87-1.59Z" style="fill: #af4639"/>
    <path d="M274.65,531.74c-4.49,4.57-10.33,1.33-15.38,2.66a1.4,1.4,0,0,1-1.94.41,1.45,1.45,0,0,1-.5-.57c-.88-1-1.77-2-2.65-3.06a13,13,0,0,1,.09-2.33c6.18-.46,11.65,4.35,18,2.39A11.32,11.32,0,0,0,274.65,531.74Z" style="fill: #861d1a"/>
    <path d="M342,536.37l13.17-5.1c2.65-1.67,5.23-2,7.66.41-.77,4.23-4.32,5.72-7.48,7.6C351.66,534.87,346.32,538,342,536.37Z" style="fill: #4f1711"/>
    <path d="M303.55,557.41c1.28-6.21,4.73-5.31,9.24-3.29-2.32,4.93-6.19,2.74-9.15,3.38Z" style="fill: #071814"/>
    <path d="M362.84,531.68l-7.66-.41a18.44,18.44,0,0,0-.09-2.1c.69-6.23,4.5-3.91,7.85-2.87,3.64.23,7.73-.21,8,5.22Z" style="fill: #a74744"/>
    <path d="M362.94,526.3c-2.92.11-5.95-.08-7.85,2.87-1.92-.38-5.74-.06-5.17-1.89,1.63-5.26,6.89-2.87,10.69-3.62Z" style="fill: #be242d"/>
    <path d="M371,510.76c1-6.73,6.31-4.73,10.43-5.14A14.43,14.43,0,0,1,371,510.76Z" style="fill: #d1403e"/>
    <path d="M256.83,534.24a12.46,12.46,0,0,1,2.44.16l2.52,5.18c-6.46.4-13,1.7-18.9-2.46C247.5,536,252.84,538.39,256.83,534.24Z" style="fill: #b95556"/>
    <path d="M334.67,518.59c3.59.58,7.55-1.35,11,1.57-1.89,5.7-6.32,6.36-11.26,6.08,1.92-3,.76-4.65-2.37-5.44Z" style="fill: #d84343"/>
    <path d="M332,520.8l5.64,1.69-3.27,3.75-5.29-.28c-3.06-2.23-7.32.7-10.19-2.36a17.51,17.51,0,0,1,.39-2.28l5-.29Z" style="fill: #95311f"/>
    <path d="M313.9,526.39c-2.79,3.55-6.87,2.06-10.42,2.65.81-7.07,6.15-5,10.41-5.16.95.55,1.26,1.11.95,1.67S314.22,526.39,313.9,526.39Z" style="fill: #901f1f"/>
    <path d="M313.9,526.39v-2.51l5-.28c3.41.75,7.41-1.06,10.19,2.37Z" style="fill: #751c14"/>
  </g>
</svg>
