<svg id="Layer_1" data-name="Layer 1" xmlns="http://www.w3.org/2000/svg" width="335" height="400" viewBox="0 0 335 400">
  <title>Artboard 1 copy</title>
  <g transform="translate(-130,-220)">
    <g>
      <g>
        <path d="M297.64,615.35l-8.51-3.22c-27.71-10.5-49.21-30-62.42-44.59A248.72,248.72,0,0,1,181.9,513.8c-8.45-4-15.39-11.19-19.67-20.55a52.15,52.15,0,0,1-4.1-28.41c-13.07-35.63-19.08-74.25-17.85-114.81l.33-10.68,8.16-6.91c23.25-19.7,61.27-36.85,101.7-45.86a224.23,224.23,0,0,1,94.34,0c40.42,9,78.45,26.16,101.7,45.86l8.16,6.91L455,350c1.23,40.55-4.77,79.17-17.85,114.8a52.15,52.15,0,0,1-4.09,28.41c-4.29,9.36-11.22,16.59-19.67,20.55a249,249,0,0,1-44.82,53.74c-13.21,14.6-34.71,34.09-62.41,44.59ZM155.81,347.58l-.17,5.45c-1.16,38.52,4.61,75.13,17.17,108.81l.5,1.36-.22,1.44a39.9,39.9,0,0,0,2.9,22.78c3.27,7.15,8.58,12.5,14.94,15.06l1.7.69,1,1.57a230.68,230.68,0,0,0,42.68,51.51l.42.41c12,13.31,31.59,31.17,56.61,40.65l4.34,1.64,4.34-1.64c25-9.48,44.59-27.34,56.61-40.65l.41-.41a231,231,0,0,0,42.69-51.51l.95-1.57,1.71-.69c6.36-2.56,11.66-7.91,14.93-15.06a39.82,39.82,0,0,0,2.9-22.78L422,463.2l.51-1.36C435,428.16,440.8,391.55,439.63,353l-.16-5.45-4.16-3.52C414,326,378.77,310.19,341.11,301.8a206.54,206.54,0,0,0-87,0C216.5,310.19,181.29,326,160,344.05Z" style="fill: #0b0c15"/>
        <g>
          <path d="M297.64,615.35l-8.51-3.22c-27.71-10.5-49.21-30-62.42-44.59A248.72,248.72,0,0,1,181.9,513.8c-8.45-4-15.39-11.19-19.67-20.55a52.15,52.15,0,0,1-4.1-28.41c-13.07-35.63-19.08-74.25-17.85-114.81l.33-10.68,8.16-6.91c23.25-19.7,61.27-36.85,101.7-45.86a224.23,224.23,0,0,1,94.34,0c40.42,9,78.45,26.16,101.7,45.86l8.16,6.91L455,350c1.23,40.55-4.77,79.17-17.85,114.8a52.15,52.15,0,0,1-4.09,28.41c-4.29,9.36-11.22,16.59-19.67,20.55a249,249,0,0,1-44.82,53.74c-13.21,14.6-34.71,34.09-62.41,44.59ZM155.81,347.58l-.17,5.45c-1.16,38.52,4.61,75.13,17.17,108.81l.5,1.36-.22,1.44a39.9,39.9,0,0,0,2.9,22.78c3.27,7.15,8.58,12.5,14.94,15.06l1.7.69,1,1.57a230.68,230.68,0,0,0,42.68,51.51l.42.41c12,13.31,31.59,31.17,56.61,40.65l4.34,1.64,4.34-1.64c25-9.48,44.59-27.34,56.61-40.65l.41-.41a231,231,0,0,0,42.69-51.51l.95-1.57,1.71-.69c6.36-2.56,11.66-7.91,14.93-15.06a39.82,39.82,0,0,0,2.9-22.78L422,463.2l.51-1.36C435,428.16,440.8,391.55,439.63,353l-.16-5.45-4.16-3.52C414,326,378.77,310.19,341.11,301.8a206.54,206.54,0,0,0-87,0C216.5,310.19,181.29,326,160,344.05Z" style="fill: none"/>
          <g>
            <path d="M150.37,348.5c.12-1.37-.83-.9-1-1.11C149.52,349.68,150.61,348.45,150.37,348.5Z" style="fill: #0b0c15"/>
            <polygon points="152.34 371.37 151.95 370.97 152.97 374.31 152.34 371.37" style="fill: #0b0c15"/>
            <path d="M153.65,392.7c.7-1.08.41-3,.07-5.13a28.68,28.68,0,0,1-.68-6.41l.33-.65L152,378.87c.19,2.31.65,4.95,1,7.42A41.76,41.76,0,0,1,153.65,392.7Z" style="fill: #0b0c15"/>
            <path d="M151.57,404.49c.53-.79.85,2.4-.16-2.69a2.84,2.84,0,0,1-.1.51C151.38,402.77,151.45,403.41,151.57,404.49Z" style="fill: #0b0c15"/>
            <path d="M151.31,402.31c-.31-2.26-.33,1.54,0,0Z" style="fill: #0b0c15"/>
            <path d="M153.21,412.66c-.34-1-.71-1.91-1-2.88-.28.68.1,3.34-.33,2.4C152.67,415.18,152.91,414.48,153.21,412.66Z" style="fill: #0b0c15"/>
            <path d="M154.83,415.26l-.49-1.49C154.23,414.07,154.25,414.48,154.83,415.26Z" style="fill: #0b0c15"/>
            <path d="M153.3,410.61l1,3.16c.18-.47.68-.59-.43-1.45C154.42,412.5,153.87,411.94,153.3,410.61Z" style="fill: #0b0c15"/>
            <path d="M153.26,408.73c.1-1.71,0-3.88,1-1C153.21,402.12,152.22,403.09,153.26,408.73Z" style="fill: #0b0c15"/>
            <path d="M155.39,393.62l.25-2.24-.72-1.86C155.28,390.45,154.91,393.81,155.39,393.62Z" style="fill: #0b0c15"/>
            <path d="M156.06,431.18c.37.1.66-1.2,1-1.51l-.85-2.08C156.26,428.76,156.51,430.91,156.06,431.18Z" style="fill: #0b0c15"/>
            <path d="M157.09,429.67c.42,1,.88,2.06,1.33,3.08C157.77,429.88,157.43,429.4,157.09,429.67Z" style="fill: #0b0c15"/>
            <polygon points="156.65 415.48 154.55 410.35 156.84 416.5 156.65 415.48" style="fill: #0b0c15"/>
            <path d="M159.22,443.49,158,441.88l2,2.92C159.73,444.37,159.48,443.93,159.22,443.49Z" style="fill: #0b0c15"/>
            <path d="M161.77,451.53c-1.06-1.14-.45,2.15-1.29.87a26.57,26.57,0,0,0,3,5.36A18,18,0,0,1,161.77,451.53Z" style="fill: #0b0c15"/>
            <path d="M165.16,460.3a29.94,29.94,0,0,0-1.68-2.54A14.32,14.32,0,0,0,165.16,460.3Z" style="fill: #0b0c15"/>
            <path d="M159.64,438.26a4.07,4.07,0,0,0-.24,2.76l.57-1.5Z" style="fill: #0b0c15"/>
            <path d="M160,439.46v.06c.35,1.37.59,2.31.69,2.72Z" style="fill: #0b0c15"/>
            <path d="M159.55,437.94l.09.32C159.69,438.11,159.7,438,159.55,437.94Z" style="fill: #0b0c15"/>
            <path d="M157.45,424.1c.94,1.79,2.36,5.57,2.31,1.61C158.83,424.5,158.86,426.77,157.45,424.1Z" style="fill: #0b0c15"/>
            <path d="M160.3,436.08l-.63-3.45c-.22.13-.43.83-.91,0Z" style="fill: #0b0c15"/>
            <path d="M161,437.66c-.25-.52-.48-1.05-.72-1.58l.24,1.28Z" style="fill: #0b0c15"/>
            <path d="M164,454.3a25.8,25.8,0,0,1,2.12,4.62c-.53-1.94-1-4-1.67-5.83C164.12,452.92,163.34,452.26,164,454.3Z" style="fill: #0b0c15"/>
            <path d="M162.05,447.09l.15.31C162.21,447.18,162.19,447,162.05,447.09Z" style="fill: #0b0c15"/>
            <path d="M167.46,475.29l.15-.34-.17-.06Z" style="fill: #0b0c15"/>
            <path d="M164.55,452.72a7.25,7.25,0,0,0-1.32-3c.4,1.06.86,2.17,1.26,3.38C164.66,453.17,164.75,453.17,164.55,452.72Z" style="fill: #0b0c15"/>
            <path d="M166.87,463.75a1.13,1.13,0,0,0,.15-.39s0-.08,0-.09,0,0,0,0l0-.17-.12-.69c0,.2,0,.46,0,.74,0,.06,0,.14,0,.19l-.05,0s0,.09-.07.12S166.74,463.73,166.87,463.75Z" style="fill: #0b0c15"/>
            <path d="M162.09,448a1.86,1.86,0,0,1-.1-.2C161.93,448.29,162,448.21,162.09,448Z" style="fill: #0b0c15"/>
            <path d="M162.09,448a12.06,12.06,0,0,0,1.14,1.75c-.34-.86-.69-1.64-1-2.31A2.22,2.22,0,0,1,162.09,448Z" style="fill: #0b0c15"/>
            <path d="M174.37,480.07c-.45,0-1.11-.94-1.53-2.33a9.68,9.68,0,0,1-.17-4.93c-.38-1.63-1.23-2-2.25-1.45a7.06,7.06,0,0,0-2.81,3.59c.42.08.66.1,1.73,3.72.12-.69.1-2.77.34-4.27s.58-2.41,1-.92a15.3,15.3,0,0,1,.35,4,10.65,10.65,0,0,0-.35,2.3c.35-1.08,1,.35,1.86,1.78s1.89,2.84,2.49,2.11a34.66,34.66,0,0,1-1.59-3.63C173.69,479.89,174.38,481.17,174.37,480.07Z" style="fill: #0b0c15"/>
            <path d="M167.7,467.69c0-.52,0-1,0-1.56-.34,1.76-.78,3-1.47,5.42.46,2.67.89,3.18,1.18,3.34a48.74,48.74,0,0,1,.16-7.74Z" style="fill: #0b0c15"/>
            <path d="M167.54,462.36a2.63,2.63,0,0,1,.49.37l.12.11s.06,0,.09,0a.48.48,0,0,1,.18.08c.25.14.51.32.75.48s.43.29.62.3a.66.66,0,0,0,.63-.47c-.13-.33-.25-.6-.36-.82l-.35-.67a3.89,3.89,0,0,0-.66-.91,5.6,5.6,0,0,1-1.4-1.7c2.5,6.26-1.15-1.65,0,3.13-.6-1.2-1-2.31-1.47-3.36.3,1.19.56,2.34.77,3.45v-.2h0c0-.31,0-.43.1-.1,0,0,.05.1.07.13a1,1,0,0,1,.44.16l.13.57,0,.09v0l0,0a.08.08,0,0,1-.09,0c0,.05-.12-.19-.21-.37s-.19-.38-.26-.52-.12,0-.17,0v0l.35.78.08.17,0,0a.5.5,0,0,1,.08.12,2.5,2.5,0,0,1,.31.55l0,.62v.07a.73.73,0,0,1,0,.2l0,.47c0,.31,0,.62,0,.93l.35-2a.86.86,0,0,0-.06-.66l-.17-.38,0-.08s0,0-.05-.12Z" style="fill: #0b0c15"/>
            <path d="M162.54,428.74c0,.22-.11.22-.17.25C162.58,429.39,162.69,429.53,162.54,428.74Z" style="fill: #0b0c15"/>
            <path d="M162.62,431.53a4.46,4.46,0,0,1-1-2.3c0-1.4.45-.09.74-.24-.45-.86-1.39-3.09-1.2-.07l.23.43c.3,2.68,0,6.34-.25,5.92A9.27,9.27,0,0,0,162.62,431.53Z" style="fill: #0b0c15"/>
            <path d="M164.91,447.07c.68,1.74,1.38,3.47,2.13,5.19l-.09-2.95-.44.28C165.78,446.5,165.4,447.34,164.91,447.07Z" style="fill: #0b0c15"/>
            <path d="M167.06,476.06l-1.09-.75c.58,1.19,1.21,2.35,1.87,3.47C167.56,477.88,167.29,477,167.06,476.06Z" style="fill: #0b0c15"/>
            <path d="M168.76,484.11l-.93-.05c.38.66.76,1.32,1.17,1.95C168.9,485.38,168.83,484.74,168.76,484.11Z" style="fill: #0b0c15"/>
            <path d="M428,424.22l.1-1.61A11,11,0,0,0,428,424.22Z" style="fill: #0b0c15"/>
            <path d="M425.25,435.42l.34.39C425.5,435.23,425.39,435,425.25,435.42Z" style="fill: #0b0c15"/>
            <path d="M302.61,603c2.49,0,5.66,0,5-.78l-1.08-.61A12.48,12.48,0,0,1,302.61,603Z" style="fill: #0b0c15"/>
            <path d="M391.23,520l-.64.39-.2,1.84Z" style="fill: #0b0c15"/>
            <path d="M389,516.37l2.27-2.16A19.28,19.28,0,0,0,389,516.37Z" style="fill: #0b0c15"/>
            <path d="M433.46,361.56c-.33-.61-.64-1.23-1-1.84C432.49,362.61,433,361.34,433.46,361.56Z" style="fill: #0b0c15"/>
            <path d="M215.29,542.71A29.81,29.81,0,0,0,218.4,547C217.05,544.74,216.34,542.66,215.29,542.71Z" style="fill: #0b0c15"/>
            <path d="M437,431c.07-1-.05-1.49-.26-1.51C436.65,430.54,436.68,431.16,437,431Z" style="fill: #0b0c15"/>
            <path d="M222.6,551.31c-.19-.34-.41-.63-.62-1a27.86,27.86,0,0,1-3.58-3.4A10.9,10.9,0,0,0,222.6,551.31Z" style="fill: #0b0c15"/>
            <path d="M234.56,312.64c-.17,0-.37.05-.53.05C234,312.83,234.24,312.77,234.56,312.64Z" style="fill: #0b0c15"/>
            <path d="M169,332c.54-.43,1.45-1.09,2.34-1.66A12.24,12.24,0,0,0,169,332Z" style="fill: #0b0c15"/>
            <path d="M188.52,508.05c-.43-.15-.12,0,0,0Z" style="fill: #0b0c15"/>
            <path d="M184.87,501.73c.34.12.65.14.8,0A1,1,0,0,1,184.87,501.73Z" style="fill: #0b0c15"/>
            <path d="M237.78,557.64l.09.1C237.7,557.28,237.72,557.36,237.78,557.64Z" style="fill: #0b0c15"/>
            <path d="M188.1,507.38a2.6,2.6,0,0,0,.44.49A1.69,1.69,0,0,0,188.1,507.38Z" style="fill: #0b0c15"/>
            <path d="M188,507.82l-.2-.14-.65-.33c-.14,0-.17.08,0,.2a3.87,3.87,0,0,0,.5.22A.68.68,0,0,0,188,507.82Z" style="fill: #0b0c15"/>
            <path d="M188.89,508.55a7.31,7.31,0,0,1-.35-.68.15.15,0,0,1,0,.18C188.6,508.15,188.71,508.29,188.89,508.55Z" style="fill: #0b0c15"/>
            <path d="M355.21,308.36c-.08-.06-.19-.11-.28-.18C353.35,308.15,354,308.26,355.21,308.36Z" style="fill: #0b0c15"/>
            <path d="M332.4,574.9c0,.05-.06.09-.11.13l.2-.1Z" style="fill: #0b0c15"/>
            <path d="M336.11,571a7,7,0,0,1-3.62,3.91l3.1,1.09C335.78,574.34,336,572.7,336.11,571Z" style="fill: #0b0c15"/>
            <path d="M432.26,396.92,431,400.55c-.88-4.68,0-7.85-1.63-4.5,1.44.42,1.16,4.07.69,7.68a48.77,48.77,0,0,0-.45,5c0,1.41.21,2.45.93,2.7l-1,2.34c.15-.69,0-.84.14-1.52-1.11,2.25-.74,3.22-.29,4.4a7.58,7.58,0,0,1,.18,5.58c-.7,2.09-1.45,3.47-1.48,2-.12,1.62-.2,3.26-.34,4.89-.4,1.36-.82.9-.43-.45-.52,2.4-1,4.82-1.57,7.22l-.07-.07a40.67,40.67,0,0,1,.24,4.86c-.91,1.7-.06-1-.55-.64-.11,1.39-.28,2.76-.45,4.15-1.25,1.36-.93-2.09-.1-4.78-1.94,1.43-2,2.28-2.08,3.72a13.4,13.4,0,0,1-2.26,7.1c.27-1.26.58-2.51.82-3.78a9.43,9.43,0,0,0-2.55,3.59,31.9,31.9,0,0,1-2.6,5c.92-.73,5.32-7.35,4.65-2.91a13,13,0,0,0-1.48,5.09c-.51-.17-.9.31-1.28,1.19-.09.22-.18.46-.28.72l-.47,1.33-.54,1.54-.15.41a.61.61,0,0,0-.05.42l.15.89c-.49-.12-1-.26-1.5-.4.17.71.32,1.33.46,1.86l.21.74a1.08,1.08,0,0,0,.09.3l.07.15a5.15,5.15,0,0,0,.55.86,6.37,6.37,0,0,1,1.12,1.6c0,3.19-1.22,3.79-2.14,4.43-.3,2.35.19,1.59.77.91s1.21-1.3,1,1.67c-.55,2-.91,3.72-1.28,5.55a46.15,46.15,0,0,1-1.55,6.2c-1.87,2.26-.5-.86-1.37-.16-.09.9-.21,1.81-.39,2.73-.38.49-.55.12-.63-.06-.43,1-.21,1.22-.05,1.6s.22.89-.83,2.31c.26.89-1.47,1.86-3.54,2.69-1,.43-2.15.79-3.19,1.24-.26.1-.52.23-.77.34l-1.1.53a13.47,13.47,0,0,0-2.32,1.41c-.14,0-.18.08-.24.12l-.15.1c-.09,0-.15,0-.19,0s-.09-.29-.07-.54.14-.43.19-.6a.23.23,0,0,0-.19-.35,2.23,2.23,0,0,0-.4.24l-.21.44-.39.83-.69,1.45c-.21.44-.4.85-.59,1.23l-.28.7c-.35.86-.6,1.49-.82,2.09-.46,1.2-.8,2.31-1.63,5-1.12,1.1-2.22,2.22-3.36,3.29,2.8-2.18,1.41,2.1,0,5.82a25.3,25.3,0,0,0,2.68-1.72c-1,1.84-2,3.63-3,5.44-.64.46-.65-.33-.53-1.49-.15.41-.3.79-.4,1.11-1.75,1.43-1.71,0-1.41-1.69l2-1.26c.19-1.73.23-3.42-.64-3.65a7.32,7.32,0,0,1-.85,1.83c0-.45,0-.78-.2-.71s-.36.77-.65,1.78l-2.08.17.3.64q-2.76,2.87-5.59,5.62c-2.28,5.36-3.66,10.71-9.44,17.79.71-2.44-1-1.65-2-2.69,2.77-.78,4.28-5.51,7.51-8.83-1.69,1.74-1.85.9-1.62.29q-2.19,3.54-4.52,7c-.7-.91-1.82.7-3.64,1.94,2.75.37-3.23,5.46-5.24,8.25-.68-.41-.59-1.48,2.45-4.24a6.12,6.12,0,0,0-3.37,4,6.19,6.19,0,0,1-3.34,4c.75-.71,1.23-1,1.27-1.55a10.76,10.76,0,0,1-1.48,1.75l-.49.48-.54.54c-.31.32-.61.62-.9.89-1.18,1.09-2.15,1.69-1.92,1l.68-.77c-2.39,2.39-5.89,6-8.89,9.14-1.5,1.57-2.84,3.07-3.81,4.28s-1.5,2.18-1.39,2.69a8.36,8.36,0,0,1-.76-2.85c-1.6,4.15-3.36,8.35-5.4,12.45-.13-1.92-5.62-2.65-1.79-6.66a21.65,21.65,0,0,0-5.46,4.06c1-.41,3.56.38,2.43,1.35-4.35.85-2.87.84-7.85,2.25,1.53-.58,1.41,2.55-.86,3.8.14-.53-1.48-2-.82-2.75-1.35,1.82-2.78,3.57-4.25,5.33,1.18-1.17-.77-2-2.33-2,.8.13-4.81,2.45-6.25,3.28l2.66-.58a13.18,13.18,0,0,0-5.82,4.32,16.16,16.16,0,0,1-2.22,2.25,12.86,12.86,0,0,1-3.67,2,2.91,2.91,0,0,0,.63-1.83,1.58,1.58,0,0,0-.84-1.53,2.27,2.27,0,0,0-.64-.54,5.23,5.23,0,0,1-1.54,1,31.75,31.75,0,0,1-3.74.86,20.66,20.66,0,0,1-9.49-.4l-.8-1.23c-1.62-.5-3.26-1-4.85-1.6,1.83-.05,5.18,0,8.59,0h5.07c1.62,0,3.09,0,4.28,0-2.22-1.54-.36-1.07-4-2.5-.49-.61.1-.6.95-.45a17.07,17.07,0,0,1,2.5.69c-2.75-1.24-5.43-2.61-8.07-4.08-.15.76-1.86.31-3.59-.18s-3.41-1.14-3.57-.51c1.6.58,3.17,1.2,4.79,1.69s3.18,1.06,4.8,1.48c-.06.38-.53.66-1.29.82a8.76,8.76,0,0,1-3.06,0,20.42,20.42,0,0,1-8.48-3.09c-1.14-1.38,2.43-1.63,2.55-2.15-1,0-5.84-2.37-6.13-3.06.93.28,1.84.59,2.78.83a12.59,12.59,0,0,0-4.44-2.15,8.86,8.86,0,0,1-4.45-3.17c-1.17-1-2.47-4.23-3.2-3.71.89,2.85-1.81,7.37-4,7.36-.19-.2-1.58-1.83-3-3.6a31.59,31.59,0,0,1-3.24-4.69c-.53-1.36.72-1.31,2-1.24s2.55.15,2.1-1c-.34.26-1.73-.26-2.27-.53-1-1.33,1.33-.51-1.41-2.68-1.45.73-5.15-4.92-2.08-.17-2.83-2-2.47-2.71-5.39-5.49.23,1.62-5-.22-7.65-2.53.42-.11.25-1,.16-1.47-1.14-1.38-2.33-2.46-3.34-3.52s-1.94-2.06-2.85-3c-1.81-2-3.54-4-5.85-6.34-.18-.68-2-3.32-.63-2.77a10.71,10.71,0,0,1-3.24-2.27c-1.69-3.79,3.23,3.2,2.35-.08-.83.43-4.45-3.05-6.76-4.9-.45,1.58,4.25,5.25,6.66,7-1.34,1.3-6.32-1-11.55-5.89-4-4-.62-2.64-1.45-3.21a32.58,32.58,0,0,0-4-4.44,27.84,27.84,0,0,0-3-2.2c-1.76-1.2-3.31-2.32-5.3-6.3-1-3.53,1.87-1.49,2.13-2.61,2.95,3.44,3.43,6.09,5.33,8.52-.61-1.13-1.23-2.24-1.82-3.37a18.17,18.17,0,0,1,4,4.65c-.47-1.45-3.1-5-6-9.1a88.9,88.9,0,0,1-7.62-12.58c-.59-.55-1.29-1.32-1.79-1.72-.26-.2-.43-.35-.63-.25s-.12.07-.12.14.06.11.07.3l1.41,2c.21,1.25-.75.35-1.41-.22s-1.21-1.06-.73.16l-.35-.33c-.13-.08-.19-.25-.4-.24l-1.06-.12-.5-.06a4.14,4.14,0,0,1-.63-.13c-.52-.14-1-.33-1.57-.51a15.59,15.59,0,0,1-6-4.11c.06-.57.14-1.13.22-1.67-.09.17.36.92,1.07,1.66a7.05,7.05,0,0,0,2.4,1.71c-1.09-.36-2.41-2-3.58-3.59s-2.26-3.23-3.67-3.65a32,32,0,0,0,1.58,3.43,33.44,33.44,0,0,1-4.82-4.27,16.21,16.21,0,0,1-3.56-6.14c-.23,1.28-.05,1.53.13,1.92a7.31,7.31,0,0,1,.52,2.87c.18-1.81,1.52,1,3.22,3.44a15.4,15.4,0,0,0,2.32,2.8c.59.48.81.34.41-.91a9.38,9.38,0,0,0,2.66,4.53c1.22,1.28,2.62,2.55,4.43,4.51,0-.23-.24-.64-.06-.69s.77.31,2.72,1.38a3.86,3.86,0,0,1,.5,0l.28,0,.12-.05.07.07a.3.3,0,0,0,0-.08c.08,0,.1,0,0,0a4.29,4.29,0,0,0-.49-.38,5.55,5.55,0,0,1-.49-.42,3.09,3.09,0,0,1-.59-.7,4.75,4.75,0,0,1,1,.14l.62.14.33.07.18,0a6.88,6.88,0,0,1,.72.08l.39.07.19,0,.13.14.5.57.25.28.12.14.2.26a14.75,14.75,0,0,0,1.36,1.57c1,1.94-.91-.49-.7.76.74.69,1.5,1.35,2.25,2-.7.79,1.76,5.72-1.53,1.77.81,1.3,1.67,2.57,2.51,3.86a23.85,23.85,0,0,0,4.75,7.34c1.11,1.89,4.18,3.72,2.41,2.69,1.6,1.8,3.26,3.56,4.92,5.3l-.15.21c4.4,5.64,10.63,10.08,15,17.11.93.78,1.89,1.54,3,2.48s2.22,2.07,3.59,3.55l0,1.16a22.53,22.53,0,0,1,2,1.83l1.06,1.1a6.11,6.11,0,0,1,.44.48l.11.15.23.3c.63.79,1.24,1.53,1.78,2.08a3.64,3.64,0,0,0,1.48,1.06c.3,2,2.85,4.84,5.88,7.55s6.48,5.32,8.47,7.23l.88-.73a64.62,64.62,0,0,0,9.93,6.85l.35-1c3.7,1.65,8.05,6.46,13.71,9.5-.56.12-1.94-.74-2.79-1.55a17.43,17.43,0,0,0,4.74,3.51,42.33,42.33,0,0,0,5.54,2.26c1.92.59,3.77,1.22,5.56,1.83a25.9,25.9,0,0,1,2.59,1,16.84,16.84,0,0,1,2.3,1.31l.13,0,.19,0,.37.1.71.19c.45.13.87.27,1.27.42a19.87,19.87,0,0,1,2.24,1l1-.24a5,5,0,0,0-.61.29c.26-.08.63-.22,1-.37,1.11-.23,2.29-.47,3.61-.8a31,31,0,0,0-3.06.59l1.58-.64.89-.37.44-.18.3-.14c.79-.36,1.69-.83,2.57-1.32l1.18.67.42-.2c2-.37,1.26-1.06,0-1.41a11.57,11.57,0,0,0,2.14-1.62c1.07.47,2.19-.2,3.38-.89s2.39-1.47,3.77-1.13a7.13,7.13,0,0,1,1.66-1.43l2.83-2c2-1.45,3.77-3.09,3.72-4.14.19.17.74,0-.15.53a15.82,15.82,0,0,0,5.21-3.48l1.53.59c.95-1.42,1.91-2.79,2.8-4.23,2.78-1,4.05-1.39,2.37,1.17,1.16-1.35,2-2.29,2.61-3s1.12-1.18,1.57-1.63a26.94,26.94,0,0,0,3.39-4.25l.36.85c1.56-1.4,3.27-4.48,4.66-4.82,2.28-.94,6.59-4.93,11.1-9.78l.85-.91c.27-.29.59-.65.76-.8l1.86-1.67,3.88-3.49c2.59-2.34,5.12-4.61,7.48-6.52-3.48-.08,4.68-3.27,3.5-5,.92-.11,2.31-1.12,1.39.68,3.64-5,6.83-6.35,8.19-10.72.92-.16-.13,1.58.55,1.33.21-.47.81-1.86,1.49-2.14s-.15,1-.56,2c3.85-5,2.67-6.7,1.54-8.12,2.57-2,3.39-3.38,3.77-5.9,1.1-.56,2.65-1.72.6,1.58.65-.87,2.76-3.47,4.49-6s3.13-5,2.58-5.52a4.36,4.36,0,0,0,1.11-1.48,7.84,7.84,0,0,0,.46-.92,1.89,1.89,0,0,0,.13-.45l.59-.89a.59.59,0,0,1,.13-.18l.21-.08.39-.14.68-.25.32-.12.5-.21a23.18,23.18,0,0,0,4.74-2.86c-.45.21-.88.45-1.33.64a5,5,0,0,1,2.22-2.74,16.35,16.35,0,0,0,3.68-3.29l.05.2a19.09,19.09,0,0,0,3.21-3.56,8.52,8.52,0,0,0,.93-1.75,11.83,11.83,0,0,1,.85-1.76c.45-.84,1.21-2,2.33-4.11l-1.17.12c-.94-.81.08-2.5,1.15-4.87a24.74,24.74,0,0,0,1.46-4,11.27,11.27,0,0,0,.35-4.21c-.22.63-.45,1.26-.71,1.87-.28-1.45.56-3.38,1.36-5.5.4-1.05.8-2.13,1.08-3.15.08-.26.13-.51.18-.75s.09-.53.16-.55a1,1,0,0,0,.19-.45c.09-.1.18,0,.28.13a1.76,1.76,0,0,1,.14.23l0,.05v0l0,.1.11.37c0-.67.07-.56.1-.72a1.44,1.44,0,0,0,.08-.26c0-.15.11-.24.08-.31s-.24-.23-.51-.3a2.09,2.09,0,0,1-.83-.31.65.65,0,0,1-.15-.18s-.05-.06-.06-.1l0,0v-.13a7.87,7.87,0,0,1,.31-1.53c1.05-.69,1.37,1.88,2.74-1.55,1.27-1.54,1.09-10.88,3.86-15.26-.88.9-1.74,1.77-1.44-.77a47.27,47.27,0,0,1,2.64-6.66c.95-2.41,1.71-4.84,1.23-6.75.26-.45.45-.59.59-.58.09-1.5.43-3.89.65-6.15a18.11,18.11,0,0,0-.06-5.36c1.05-.49,1.66-1.89,2-3.71a37.83,37.83,0,0,0,.58-6.17,56.23,56.23,0,0,1,.34-5.66c.2-1.48.61-2.4,1.45-2.28l.45-4.53.35-4.54.32.27A25.8,25.8,0,0,0,443,385a16.09,16.09,0,0,0-.84-3.6c.29-1.32.56-.33.74-.21a48.76,48.76,0,0,0,.69-8.71,40.42,40.42,0,0,0-1.32-7.72l1.1-.74c-.28-.81.05-3.12.27-6.16.12-1.52.24-3.22.31-5l0-1.33c0-.64,0-1.28,0-1.92,0-1.38-.07-2.77-.15-4.13-1.57-1.27-3.25-2.54-4.74-3.54.12-.07.47-.05,1.34.48l-1.8-1.28-1.5-1.15c-1-.8-2-1.67-3-2.57l-3-2.62c-1-.89-2-1.75-2.93-2.52a30.1,30.1,0,0,0-5.47-3.8c-1.7-.85-3.2-1.25-4.46-.82-2-.75-3.91-1.52-5.87-2.24,6.77,4.25-1.88.91.63,3.13-2.79-1.35-6.5-4.91-3-3.29l.43.46c1.13-.58-1-1.92-3.25-3.26s-4.79-2.53-4.38-3.12c-14.22-6.79-28.26-13.25-42.47-17.46l1.18,2-4.91-1.51c-1.19-.73-1.4-1.73,2.11-.65-1.6-1.46-6.15-.88-6.33-.56-6.79-2.46,3.19-1.12,1.08-1.72l-2.94-.64.61.35c-2.52,0-2.9.68-7.17-.42-2.65-.95-1.17-1.31-2.24-1.61,0-.11-.32-.24-1.66-.39l-3.2-.74-3.22-.64,2.35,1.72c-3,.12-6-1.13-3.31.82-2-1.51-8-2.61-13.79-3.21l-4.27-.37-3.82-.23a36,36,0,0,1-4.72-.45,28.83,28.83,0,0,1-3,.42c-1,.12-2,.19-3.11.22-2.11,0-4.33.07-6.8,0,1.24.27,2,1.66-2.24,1.59.73-1.52-1.22-1.76-3.8-1.88s-5.78,0-7.59-.9c1.6.56-1.42.93-4.21,1.35s-5.31,1-2.8,1.74c-3.55.19-.35-1.08-3.12-1.45-4.13,1.18-8.76,1.69-13.65,2.45a101.41,101.41,0,0,0-15,3.12c0,.42,1.79.56-.22,1.69-1.94-.18-3.87-.26-5.82-.39-1.94.78-1.19,2.66-5.17,2.5.61.16,1.51.39.23.93-10,2.13-19.71,6.14-29.21,10.53S181.8,324.84,172,329c2.82-.87,1.25.2-.57,1.38,1.29-.6.49.83,1,1.12-1.36.57-2.69,1.22-4,1.83l-2,.93-2,1c-.2,1.09-2.12,2.44-3.86,3.92s-3.45,2.83-3.31,3.65c.63-.65,1.28-1.29,2-1.94-.91,1.8.7,1.68,2.6,1.41s4.1-.7,4.55.32c1-1.91,3.52-3,6.3-4.09s5.73-2.44,7.8-5.3c1.47-.35-.7,1.2.22,1.24,1-1.59,2.56-2.82,6-4.23l-.25.39a81.75,81.75,0,0,1,11.5-5.52c3.62-1.4,7.43-2.74,12.93-4.66l-1.2-.65a16.26,16.26,0,0,1,4.18-.89c2.09-2.56-6.57,2.54-4.8-.06,2,.37,6-1.31,10.11-2.73a50.45,50.45,0,0,1,5.71-1.78c1.69-.38,3-.52,3.76-.1,3.68-1.15-1.46-.82,2.23-2l1.17.32.68-1.1c2.46-.65,3.93-.17,4.18.33a15.83,15.83,0,0,0-2.24.86c3.35-.19,8.78-2.81,9.95-2.82-1.23.19-2.46.35-3.68.57,2.49-.85,5.17-1.6,7.91-2.34s5.61-1.4,8.41-2,5.61-1.14,8.33-1.74,5.36-1.13,7.84-1.73l-.83-.41a22.31,22.31,0,0,1,7-.86,45.66,45.66,0,0,0,7.66-.29l-.31.13a20.54,20.54,0,0,1,6.3-.91c-2.14.61,4.06,1.08,1.25,1.76,4.18-.57,5.23-.69,5.92-1a16.43,16.43,0,0,1,3.83-1.55l1.26.87c1.93-.66,2.11-1.1,6.41-1-3.55.48,2.63,1.43-1.34,2.11a31,31,0,0,0,5.83,1c1.71.12,3.23,0,4.59,0a20.39,20.39,0,0,1,3.68.17,6.12,6.12,0,0,1,3,1.44c2.19-.83.34-1.43-1.79-1.84s-4.52-.51-3.34-.63c-1.84-1,3.59-1.31,6.36-.62,1.43.22,2.52,1.17,4.12,2.18a20.58,20.58,0,0,0,7.19,2.85c-.69-.15-.78,0-1.46-.15,2.47,1.1,5.3.42,8.29,2.08,2.13-.87,4.13,1.16,5.09-.4-2.17-.42-4.33-.9-6.52-1.25,1.89.19,3.8.07,6,.17a20.51,20.51,0,0,1,3.48.45,20.08,20.08,0,0,1,4,1.4,14.51,14.51,0,0,1-3.76.05c1.6,1,3.45.63,5.1,1.67-.51.77-2.46.3-4.82-.33a24.85,24.85,0,0,0-7.24-1.22c1.67,1.21,7.65.7,5.2,2,3.44-1.52,6.71,2.21,11.88,1.94l-.63.91a15,15,0,0,1,3.8.56c-.95.15-1.91.32-2.86.5a11.66,11.66,0,0,1,5.42,1.82,18.46,18.46,0,0,0,5.13,2.26c-3.68-1.36-4-1.76-3.75-2.13s1.1-.61-.36-1.52c4.85.94,5.92,2.16,7.08,3.42s2.39,2.77,7.49,4.59c-1.39-.46-4.87-2.65-2.55-2.26a22.55,22.55,0,0,1,5.13,3.43c6.67,2.66-.57-1.43,2.5-.81,1.71,2.17,3.42,1,6.49,2l-.45,1c3.53,2.12,4.25,1.88,4.9,1.59s1.21-.63,4.28,1.51c-1.16-.05-2.3-.12-3.45-.15l3.57,1.47-1.28.7c4.11,1.15,5.1,2.07,8.45,4.4-.42-1.14,1.46-1.39,4.56.52.88.93.45,1,.35,1.08s.16.33,2.31,1.71a4.58,4.58,0,0,1-4.18-2.1c-.38.18-1.32,0-1.7.14a17.66,17.66,0,0,0,3.62,2.72c1.31.83,2.59,1.52,3.35,2a9,9,0,0,1-1.5-1.32c2.33.94,4.57,2,6.85,3.08.69,1-.25.71-1.17.43a34.11,34.11,0,0,1,4.13,2.35c-1,.32-1.45,1.09-4.08-.48,1,.57,2,1.18,3,1.77l1.49.9,1.54,1a5.26,5.26,0,0,1-.06.86.6.6,0,0,1-.43.51.26.26,0,0,0,.07.15c0,.17.08.29.23.49l.06.07,0,.05,0,.21.16.87c.1.58.21,1.17.31,1.77a24.75,24.75,0,0,1,.45,7.28,5,5,0,0,1,.45,1.93c-.05,1.23-.16,2.43-.27,3.62s-.29,2.38-.39,3.59a35.43,35.43,0,0,0-.14,3.76,27.84,27.84,0,0,0,.31,4.15c-.58,1.08-1.13,2.15-1.74,3.21,0,4.58,2.29-4.35,2.32,3.3.1,5.43-1.47,1.9-2.07,3.74a40.1,40.1,0,0,1,.82,5.4,16.74,16.74,0,0,1-1,6.92A36.78,36.78,0,0,1,432.26,396.92ZM420.77,452c.13-1.11.14-3.39,1-3.95C422.55,449.63,421.68,450.37,420.77,452Zm-36.25,73.5a6.06,6.06,0,0,1,2.33-2.65A10.94,10.94,0,0,1,384.52,525.52Zm-186.95-5.26.11.07C198.8,522.65,198.41,521.81,197.57,520.26Zm-2.6-4.61c-.41-.36-.52-.24-.52,0a6.52,6.52,0,0,1,1.8,2.29C196.27,517.49,196.05,516.82,195,515.65ZM341.11,297.41l.95.48C339.72,297.72,340.42,297.58,341.11,297.41Z" style="fill: #0b0c15"/>
            <path d="M389.21,516.82a.93.93,0,0,1,.74-.05C390.05,516.31,389.89,516.19,389.21,516.82Z" style="fill: #0b0c15"/>
            <path d="M433.64,361.91v-.17a.4.4,0,0,0-.19-.18Z" style="fill: #0b0c15"/>
            <path d="M255.26,568.79a7.39,7.39,0,0,1,1.16,1.72C256.63,570.34,256.4,569.9,255.26,568.79Z" style="fill: #0b0c15"/>
            <path d="M175,498.21a36.38,36.38,0,0,0,2.86,2.83,9.83,9.83,0,0,1-2.13-2.91C175.55,498.35,175.75,499.18,175,498.21Z" style="fill: #0b0c15"/>
            <path d="M172.88,467.15c-.08-.5.08-1,0-1.51l-.51.07C172.17,467.79,172.5,469.25,172.88,467.15Z" style="fill: #0b0c15"/>
            <path d="M175.81,493.28c.59-.72-.84-2.42-2-4.61.07.13.13.26.19.39C172.5,488.92,174,491.26,175.81,493.28Z" style="fill: #0b0c15"/>
            <path d="M173.5,488.16a13.32,13.32,0,0,1-.89-2.11C172,486,172.83,487,173.5,488.16Z" style="fill: #0b0c15"/>
            <path d="M190.83,510.37c-.39-1.07-1.35,0-1.37-.72-.82-.23.46,1.19,1.49,2S192.73,512.81,190.83,510.37Z" style="fill: #0b0c15"/>
            <path d="M177.34,490.07l-.53,1.28c.48.24,1,.45,1.46.65C177.93,491.37,177.64,490.71,177.34,490.07Z" style="fill: #0b0c15"/>
            <path d="M190.13,503a27,27,0,0,1-3.19-2c-.05.19-.51,0-1.06-.23C187.78,502.16,190.15,503.42,190.13,503Z" style="fill: #0b0c15"/>
            <path d="M185.88,500.8a22.65,22.65,0,0,0-2.57-1.73A15.63,15.63,0,0,0,185.88,500.8Z" style="fill: #0b0c15"/>
            <path d="M180.43,494.05c.15.33.33.66.51,1a24.6,24.6,0,0,0,1.72,2A26.13,26.13,0,0,1,180.43,494.05Z" style="fill: #0b0c15"/>
            <path d="M213.58,534.28c.95,1,1.9,1.93,2.88,2.87.56.05,0-.92-1.09-2C214.54,534.62,213.46,533.56,213.58,534.28Z" style="fill: #0b0c15"/>
            <path d="M208.36,522.85a3.87,3.87,0,0,1,.39,1.93l1.17-.74Z" style="fill: #0b0c15"/>
            <path d="M215.88,531.77c.55.07,4.57,3.71,1.25-.09C216.58,531.62,213.75,528.77,215.88,531.77Z" style="fill: #0b0c15"/>
            <path d="M257.54,575.64l-.8-.62-1.32,1.84Z" style="fill: #0b0c15"/>
            <path d="M301.83,590.89a6.55,6.55,0,0,0-2,.79.91.91,0,0,0-.44.63.79.79,0,0,1-.37.57,1.43,1.43,0,0,1-.37.19,1.84,1.84,0,0,1-.5,0c-.17.35.17.36.58.35l.32,0a4.55,4.55,0,0,1,.5-.08c.27,0,.37,0,.14.25C302.15,592.05,303.54,591.8,301.83,590.89Z" style="fill: #0b0c15"/>
            <path d="M299.7,593.61l-.3.19a1.25,1.25,0,0,0-.25.18l-.32.32c.21-.15.3-.25.45-.37A3.36,3.36,0,0,0,299.7,593.61Z" style="fill: #0b0c15"/>
            <polygon points="158.91 337.91 156.11 339.57 158.21 338.85 158.91 337.91" style="fill: #0b0c15"/>
            <path d="M155.34,343l-1.49-.63-.56,2.19C153.78,344.1,154.73,343.14,155.34,343Z" style="fill: #0b0c15"/>
            <path d="M415.09,459.39l.18.51a5,5,0,0,0,.48-.65l.25-.48.15-.27c.2-.36.39-.85.66-1.5l-.78,1-.38.48-.1.12-.16.28C415.29,459.05,415.19,459.22,415.09,459.39Z" style="fill: #0b0c15"/>
            <polygon points="427.41 420.22 427.24 420.9 428.77 419.87 427.41 420.22" style="fill: #0b0c15"/>
            <path d="M430.49,386.24c-.14,1.39,0,3-.21,4.42C430.36,387.63,432.13,386,430.49,386.24Z" style="fill: #0b0c15"/>
          </g>
          <g>
            <path d="M298.43,609.86c1.39.61,1.21-.45,1.49-.53C297.47,608.63,298.41,610.11,298.43,609.86Z" style="fill: #0b0c15"/>
            <polygon points="275.13 602.1 275.69 601.98 272.09 601.05 275.13 602.1" style="fill: #0b0c15"/>
            <path d="M255.88,589.76c.79,2.61,6.89,4.67,10,7.29l.38.68,2.24-.14C264.21,595.21,258.39,592.27,255.88,589.76Z" style="fill: #0b0c15"/>
            <path d="M248.58,579.49c.17.94-2.34-1.27,2,2-.16-.22-.2-.3-.29-.44C249.93,580.7,249.4,580.29,248.58,579.49Z" style="fill: #0b0c15"/>
            <path d="M250.3,581c1.86,1.48-.86-1.39,0,0Z" style="fill: #0b0c15"/>
            <path d="M241.87,574c.88.6,1.79,1.15,2.68,1.73-.24-.71-2.22-2.66-1.29-2.15C240.75,571.55,241,572.26,241.87,574Z" style="fill: #0b0c15"/>
            <path d="M238.92,572.73l1.34,1C240.16,573.38,239.88,573.05,238.92,572.73Z" style="fill: #0b0c15"/>
            <path d="M243.11,575.71c-1-.65-1.9-1.34-2.85-2,.15.5-.17.91,1.27,1C241,574.81,241.8,575,243.11,575.71Z" style="fill: #0b0c15"/>
            <path d="M244.39,577.21c1.06,1.46,2.67,3.11-.08,1.43C249,582.46,249,581,244.39,577.21Z" style="fill: #0b0c15"/>
            <path d="M254,590.37l1.66,1.81,2,.81C256.6,592.58,254.13,589.88,254,590.37Z" style="fill: #0b0c15"/>
            <path d="M228.1,559.07c-.37.11.16,1.38.05,1.86l2,1.29C229.4,561.23,227.87,559.55,228.1,559.07Z" style="fill: #0b0c15"/>
            <path d="M228.15,560.93c-1-.64-2-1.32-3-2C227.42,561.16,228,561.33,228.15,560.93Z" style="fill: #0b0c15"/>
            <path d="M237.28,573.59c1.68,1,3.32,2.11,5,3.09-2-1.24-3.9-2.54-5.82-3.87Z" style="fill: #0b0c15"/>
            <path d="M218.7,549.68l1.93.88c-1.11-.55-2.18-1.15-3.28-1.73Z" style="fill: #0b0c15"/>
            <path d="M212.63,543.28c1.45.66-.5-2.23.82-1.34a31.63,31.63,0,0,0-5-4A21.21,21.21,0,0,1,212.63,543.28Z" style="fill: #0b0c15"/>
            <path d="M206,536a27.19,27.19,0,0,0,2.52,1.93A16.79,16.79,0,0,0,206,536Z" style="fill: #0b0c15"/>
            <path d="M221,554.65A4.48,4.48,0,0,0,219.8,552l.29,1.65Z" style="fill: #0b0c15"/>
            <path d="M220.1,553.71v-.05L218,551.49Z" style="fill: #0b0c15"/>
            <path d="M221.29,554.9l-.25-.25C221.07,554.81,221.1,554.89,221.29,554.9Z" style="fill: #0b0c15"/>
            <path d="M231.48,566.37c-.45-.29-1-.68-1.53-1-.1-.05-.33-.26-.5-.39s-.38-.25-.56-.37-.49-.25-.69-.33c-.41-.16-.68-.19-.68,0a1.21,1.21,0,0,0,.2.55,8.36,8.36,0,0,0,.79,1.14l.31.16.19,0a.41.41,0,0,0,.26,0c.13-.07.2-.22.3-.33S230.13,565.5,231.48,566.37Z" style="fill: #0b0c15"/>
            <path d="M221.67,557c.84.93,1.67,1.86,2.53,2.76.12-.23-.11-1,.81-.44C223.89,558.51,222.78,557.73,221.67,557Z" style="fill: #0b0c15"/>
            <polygon points="220.15 555.88 221.67 556.95 220.74 555.92 220.15 555.88" style="fill: #0b0c15"/>
            <path d="M209.34,541.48a22.94,22.94,0,0,1-3.83-3.77,56.7,56.7,0,0,0,3.93,5.11C209.86,542.84,210.86,543.19,209.34,541.48Z" style="fill: #0b0c15"/>
            <path d="M214.4,547.57l-.28-.23C214.21,547.56,214.31,547.71,214.4,547.57Z" style="fill: #0b0c15"/>
            <path d="M193.68,522.1l0,.35a1,1,0,0,1,.18,0Z" style="fill: #0b0c15"/>
            <path d="M209.54,543.2a7.44,7.44,0,0,0,2.55,2.39c-.86-.84-1.75-1.75-2.65-2.77C209.25,542.81,209.16,542.85,209.54,543.2Z" style="fill: #0b0c15"/>
            <path d="M202.21,532.06c.35.77.81,1.62,1.3,2.5C203.24,533.73,202.58,532.14,202.21,532.06Z" style="fill: #0b0c15"/>
            <path d="M214,546.77l.2.15C213.94,546.39,213.91,546.51,214,546.77Z" style="fill: #0b0c15"/>
            <path d="M214,546.77a12.91,12.91,0,0,0-1.86-1.18c.72.67,1.4,1.27,2,1.75A2.8,2.8,0,0,1,214,546.77Z" style="fill: #0b0c15"/>
            <path d="M185.26,520.55c.9-.24,3.94,2.88,5.33,6.44,2.65,2.6,3.61-1.07,3.13-4.54-.38.13-.68.35-3.19-2.43.3,1.36,3.79,7.41,1.33,5.31-3.22-3.8-2.05-3.52-3-5.76.21,2.33-4.79-4.38-5.55-2.62.93,1.13,1.92,2.24,2.87,3.35C186,520.51,184.79,519.4,185.26,520.55Z" style="fill: #0b0c15"/>
            <path d="M197.76,528.21l1,1.15a22.72,22.72,0,0,1-2.14-4.93c-1.8-1.8-2.37-2-2.71-2L196,525.5l2.16,3Z" style="fill: #0b0c15"/>
            <path d="M202.92,534.74c-1.49-.32-4.07-3-3.5-.56,2.84,3.49,2.56,2,4.58,3.79-4.72-5.46,1.69,1.29-1.13-3.11,1,1,1.85,1.95,2.64,2.85-.73-1.07-1.42-2.12-2-3.15l.06.16,0,0h0c.1.32.11.44,0,.13l-.11-.11a.89.89,0,0,1-.48,0c-1.14-1.75,0-.41.48,0,.05,0,.12,0,.16,0v0c-1.64-1.76-3.24-3.55-4.82-5.36A48.33,48.33,0,0,0,202.92,534.74Z" style="fill: #0b0c15"/>
            <path d="M224.14,564.74c-.11-.21,0-.26,0-.32C223.69,564.19,223.5,564.12,224.14,564.74Z" style="fill: #0b0c15"/>
            <path d="M222.35,562.25a5.53,5.53,0,0,1,2.24,1.56c.91,1.22-.31.33-.47.61.94.52,3.15,2,1.06-.59l-.46-.25a28.58,28.58,0,0,1-2.57-3.67c-.64-1.13-1-1.94-.75-1.8A9,9,0,0,0,222.35,562.25Z" style="fill: #0b0c15"/>
            <path d="M211.79,548.79c-1.48-1.37-2.92-2.8-4.38-4.21l1.42,2.87.27-.45C211.26,549.71,211.23,548.73,211.79,548.79Z" style="fill: #0b0c15"/>
            <polygon points="193.68 521.26 194.97 521.34 191.84 519.3 193.68 521.26" style="fill: #0b0c15"/>
            <polygon points="189.26 514.87 190.15 514.63 188.6 513.2 189.26 514.87" style="fill: #0b0c15"/>
            <path d="M384.79,292.79l1.8.4A13.29,13.29,0,0,0,384.79,292.79Z" style="fill: #0b0c15"/>
            <path d="M372.27,288.47l-.44.31C372.48,288.74,372.78,288.65,372.27,288.47Z" style="fill: #0b0c15"/>
            <path d="M147.75,340.55c2.53-1.06,5.59-2,4.71-2.53l-1.24-.22A15.7,15.7,0,0,1,147.75,340.55Z" style="fill: #0b0c15"/>
            <path d="M265.37,283.65l-.8-.18L263,284.64Z" style="fill: #0b0c15"/>
            <path d="M266.66,279.42c1.19,0,2.39.13,3.57.19A22.76,22.76,0,0,0,266.66,279.42Z" style="fill: #0b0c15"/>
            <path d="M449.24,326.54l2.32.63C448.91,325,449.75,326.34,449.24,326.54Z" style="fill: #0b0c15"/>
            <path d="M157.44,445.85c-.13-1.11-.29-2.1-.46-3s-.31-1.72-.49-2.47C156.63,443.1,156.47,445.4,157.44,445.85Z" style="fill: #0b0c15"/>
            <path d="M376.53,300.72c1.08.19,1.59.16,1.63-.06C377.05,300.46,376.39,300.42,376.53,300.72Z" style="fill: #0b0c15"/>
            <path d="M154.86,434.19c0,.4,0,.79.06,1.19a45.09,45.09,0,0,1,1.57,5A13.65,13.65,0,0,0,154.86,434.19Z" style="fill: #0b0c15"/>
            <path d="M380,564.31c-.17.1-.35.25-.51.34C379.56,564.78,379.76,564.6,380,564.31Z" style="fill: #0b0c15"/>
            <path d="M315.93,603.22c.61-.38,1.66-.91,2.63-1.41A15.34,15.34,0,0,0,315.93,603.22Z" style="fill: #0b0c15"/>
            <path d="M168.48,492.26c.74,1.27.2.16,0,0Z" style="fill: #0b0c15"/>
            <path d="M169.21,500.58c-.29-.2-.56-.33-.77-.23A1.11,1.11,0,0,1,169.21,500.58Z" style="fill: #0b0c15"/>
            <path d="M145.44,419.23l0-.14C145.32,419.62,145.34,419.53,145.44,419.23Z" style="fill: #0b0c15"/>
            <path d="M169.16,494.42c-.19-.53-.39-1.15-.66-1.8A12.2,12.2,0,0,0,169.16,494.42Z" style="fill: #0b0c15"/>
            <path d="M169.4,493.93l.57,1.16C170.2,495.16,170.2,495,169.4,493.93Z" style="fill: #0b0c15"/>
            <path d="M167.55,490.43c.36.76.66,1.49.95,2.19-.08-.28-.09-.41,0-.36C168.28,491.88,168,491.35,167.55,490.43Z" style="fill: #0b0c15"/>
            <path d="M446.23,446.4a2.69,2.69,0,0,1-.19.32C445.94,448.48,446.09,447.74,446.23,446.4Z" style="fill: #0b0c15"/>
            <path d="M178.31,307.75a1,1,0,0,0-.16.13l.24-.09Z" style="fill: #0b0c15"/>
            <path d="M183.5,304.32a9.57,9.57,0,0,1-5.11,3.47l3.09,1.56Z" style="fill: #0b0c15"/>
            <path d="M414.09,305.08c-1.17-.9-2.33-1.84-3.52-2.71,5.35,1,8.57,3.25,5.44.3-1,1.2-4.79-.67-8.68-2.36a40.48,40.48,0,0,0-5.47-2.13c-1.58-.45-2.77-.54-3.21.1-.78-.59-1.58-1.14-2.39-1.69.75.33.94.21,1.68.55-2.3-1.72-3.48-1.59-4.87-1.43a10.4,10.4,0,0,1-6.27-1.08c-2.24-1.08-3.72-2.1-2-1.84-1.81-.44-3.66-.77-5.48-1.15-1.5-.58-1-.94.54-.37l-4-1.26-4.07-1.16.09-.07c-1.29.09-4.11,0-5.47-.09-1.94-1,1.12,0,.7-.52l-4.68-.6c-1.62-1.28,2.31-.93,5.38.08-1.66-2.06-2.66-2.15-4.3-2.26a20.45,20.45,0,0,1-8.28-2.27l4.39.76c-2.33-2.39-5.84-2.7-10.52-4.86.52.41,2.83,1.65,4.34,2.72s2.23,2-.32,1.77a15.59,15.59,0,0,0-6-1.13c.23-1.07-2.47-1.39-5.8-2l.5-1.34c-3.69-.33-3.54.5-5.77.73-4-.83-4.67-2-5.49-3.05-6.46-1.16,4.23,2.37-3.47,1.57a34.22,34.22,0,0,0-7.39-.89c-1.23,0-2.48,0-3.84,0l-4.44.29c-3.74-.73.71-.83-.62-1.32-1.14.29-2.27.66-3.4,1-.82-.06-.54-.4-.4-.57-2.84.35-.29,1.38-4.71,1.67-.61.78-2.85.14-5.65-.38a31.54,31.54,0,0,0-4.47-.57,11.65,11.65,0,0,0-4.4.6c-1.36-.35.62-.89.18-1.43-3.74.7-5.33,1.1-6.75,1.44a52.48,52.48,0,0,0-5.65,1.83c-1.77-.17-3.53-.27-5.31-.36,2,.3,1.77.91.57,1.64a53.7,53.7,0,0,1-5.43,2.4c1.41.31,2.6.58,3.39.71-2.2.54-4.37,1.15-6.55,1.72-.84-.09-.26-.7.75-1.44-.44.18-.85.35-1.17.52-2.46-.09-1.38-1.13.22-2.2.87.15,1.73.33,2.56.51,1.53-1.1,3-2.28,2.51-3.05a10.41,10.41,0,0,1-2.17.7c.4-.29.66-.54.43-.65s-.92.3-2,.82l-1.8-1.33-.28.67c-3,.21-6.05.37-9.08.69-6,2.92-10.84,6.45-20.34,9.85,2.08-1.82,0-2-.26-3.34,1.54.31,3.38-.39,5.51-1.25a34.4,34.4,0,0,1,7.14-2.43c-2.72.49-2.29-.29-1.66-.68q-4.42,1.8-8.78,3.68c-.1-1.14-2.15-.25-4.66,0,1.21.81-.38,1.64-2.68,2.52s-5.32,1.85-7,2.78c-.46-.64.17-1.66,4.69-2.9-5.46-.05-5.52,4.54-10.74,4.84,1.07-.39,1.69-.48,2-1-2.31,1.44-8.56,3.29-7.36,2.13l1.06-.42c-1.8.6-4.06,1.39-6.4,2.38s-4.82,2-7,3.16c-4.47,2.17-8,4.51-8.08,5.58a7.36,7.36,0,0,1,.18-3l-2.39,2.88-2.3,2.94-2.26,2.92-2.18,3c.28-2-5.61-3.21-.48-7a23.87,23.87,0,0,0-6.89,3.86c1.18-.45,3.83.55,2.43,1.48a23.4,23.4,0,0,0-4.17.86c-.91.31-2,.63-4.79,1.53,1.76-.69,1.34,2.58-1.14,4.05.17-.57-1.57-2-.8-2.78-1.65,2-3.17,4.09-4.7,6.12,1.25-1.39-.93-1.93-2.71-1.57.45,0-.84.91-2.42,2l-2.41,1.72a19.41,19.41,0,0,0-1.72,1.47c.94-.5,1.86-1,2.82-1.48a15.56,15.56,0,0,0-3.61,3.36,14.57,14.57,0,0,0-1.76,3,21.14,21.14,0,0,1-1.66,3.05,15,15,0,0,1-1.34,1.66,23.66,23.66,0,0,1-2.06,1.91,2,2,0,0,0-.5-1.87c-.57-.5-1.72-.49-4,1.16a3.18,3.18,0,0,0-.05.44c.29.83.8,2.12,1.41,3.5.31.66.64,1.44,1,2s.7,1.25,1.06,1.95a30.43,30.43,0,0,1,3.22,9.71l-.76,1.35c.23,1.8.56,3.61.83,5.41a67.25,67.25,0,0,1-3.85-8.39,100.92,100.92,0,0,1-3.39-9.85c-.67,3-.88.81-.95,5.35-.74,1.58-1-2.5-1-3.84l-.38,5.29-.32,5.37c1.45-.45,1.48,8.23,2.73,7.8l-.79-5.81-.67-5.83c.75-.22,1.78,1.49,2.57,4.18a34.11,34.11,0,0,1,1.35,10.1c-.54,1.93-2.7-1.39-3.19-1.23.53,1,1.17,7.17.82,7.87l-.88-3.19a14.2,14.2,0,0,0,.8,5.64,12.68,12.68,0,0,1,.29,6.3c0,1.74-1.54,5.37-.64,5.6,1.49-3,6.72-3.9,8.13-2.14-.12.6-.85,9.11-1.43,11.17-1,3-3.65-3.92-4.53-1.38.41.07,1.11,1.59,1.34,2.23-.13,1.86-1.34-.62-.69,3.33,1.54.48,1,8.05,1.49,1.71,1,3.79.25,4.14,1,8.65.74-1.58,3.92,3.51,5.06,7.2-.42-.16-.75.79-.89,1.24,1.34,7.8,1.67,12.09,3.45,19.28-.18.75.33,4.32-.7,3a14.33,14.33,0,0,1,1.94,4c0,2.31-.41,1.1-.9-.23s-1-2.8-1.28-.95c.89.06,2.83,5.38,4.31,8.32.48-.67,0-2.49-.77-4.51-.39-1-.86-2.08-1.32-3.07l-1.22-2.7c1.81-.5,5.14,4.44,8.32,11.42,2.32,5.62-.33,2.89.25,3.8.43,1.37.86,2.51,1.27,3.5.22.5.41.91.63,1.39s.48,1,.71,1.48a6,6,0,0,1,.33.68l0,.68.11,1.28a5.73,5.73,0,0,0,.17,1c.07.28.14.55.2.81a21.71,21.71,0,0,1,.68,3.31,31.83,31.83,0,0,1,0,5.05c-.42,1.81-1,1.95-1.56,1.71s-1.19-.86-1.56-.4a16.91,16.91,0,0,1-.15-6.05c.25-1.7.6-3.16.72-4.81-.3,1.34-.57,2.69-.77,4.06A14,14,0,0,1,158,468a14.18,14.18,0,0,1,.12-1.86c0-.3.09-.59.15-.86l.08-.4a2,2,0,0,0,0-.36v.34l-.13.42c-.09.3-.17.64-.26,1a25,25,0,0,0-.39,2.74,42.75,42.75,0,0,0,0,7.53,59.47,59.47,0,0,0,1.32,8.53c.64,2.77,1.43,5.37,2.1,7.54,1,1.34,2.62,3.55,2.45,2.2-.45-.82-.92-1.62-1.33-2.46-.06-1.37.75-.28,1.48.66s1.38,1.77.85.13c1.07,1.49,2.37,2.94,3.72,4.49s2.76,3.21,4.22,5.19c-.13.53-.26,1.08-.35,1.62.09-.17-.31-.92-.9-1.71a10.62,10.62,0,0,0-1.88-2.13c.86.66,1.73,2.42,2.88,4s2.62,3.09,4.07,3.08c-.73-1-1.4-2-2-3a35.29,35.29,0,0,0,5.19,2.53l2.78,1.18,1.1.52,1.24.61.61.31c.09.07.23.08.28.19l.18.3.69,1.21a10.3,10.3,0,0,0-.54-1.92,3.38,3.38,0,0,0-.88-.53,7.26,7.26,0,0,1-1.2-.72l-.45-.33c-.12-.1-.46-.34-.47-.42s-.34-.49-.55-.83c.59,1.44-1.67.24-3.58-1.24s-3.53-3-2.72-.87a12.41,12.41,0,0,0-2.11-3.88,11.37,11.37,0,0,1-2.13-4.43c-.15.17-.13.57-.3.57s-.52-.42-1.34-1.92a3.85,3.85,0,0,1-.72-.45l-.09-.22.05.19c-.14-.1-.16-.1,0,.07a5.78,5.78,0,0,1,.35,1.87,10.54,10.54,0,0,1-3.13-3.54c-1-1.62-1.85-3.39-2.46-4.21-.52-2.13.78.67.84-.61-.58-.81-1.14-1.66-1.68-2.52.83-.6.21-5.86,2-1.24-.4-1.41-.68-2.85-.94-4.29a48.68,48.68,0,0,0-.34-8.35c.19-2.05-.82-5.35-.19-3.46v-1.11l0-.4,0-.8.1-1.59c.07-.27-.11-.51-.19-.76l-.31-.75-.61-1.51c-.12-.3-.17-.4-.24-.55l-.19-.44-.78-1.75.21-.15c-2.34-7.12-6.41-14.31-6.8-23.14a42.07,42.07,0,0,1-2.42-9.09l.66-1a25.38,25.38,0,0,1-.63-2.85c-.16-1.08-.28-2.24-.42-3.34-.28-2.19-.6-4.14-1.14-4.76.87-1.93.27-5.81-.39-10l-.57-3.13c-.17-1-.34-2.07-.5-3.06a43,43,0,0,1-.61-5.24l-1.14-.1c-.15-2-.4-3.88-.72-5.91s-.62-4.19-1-6.62l-1,.36a29.38,29.38,0,0,1-.37-7.88c.2-3.05.41-6.39.36-9.75.39.46.28,2.16.09,3.36a23,23,0,0,0,.67-6.13c0-2.07-.23-4.16-.42-6.23s-.44-4.11-.47-6.14c0-1,0-2,.09-3,0-.48.1-1,.18-1.43a1.19,1.19,0,0,1,.12-.43,2.44,2.44,0,0,1,.14-.28,2.57,2.57,0,0,1-.18-1.22,3.07,3.07,0,0,1,.82-.39.33.33,0,0,0-.1.15,2.77,2.77,0,0,0,.25-.19c.2-.06.39-.1.58-.14a3.09,3.09,0,0,0,.95-.47l-.54.24-.27.12-.13,0a1.71,1.71,0,0,0-.47.12l1.33-1.27c.7-.68,1.45-1.44,2.18-2.22l1.37.24c.13-.12.23-.21.35-.34.92-.52,1.15-.87,1-1.09a1.82,1.82,0,0,0-1.41-.27,18.63,18.63,0,0,0,1.7-2.21c1.18.16,2.11-.8,3.14-1.78s2.19-1.93,3.63-1.85c.51-1.62,8.09-6.38,8.06-8.52.19.17.77-.06-.17.55,1-.52,2.07-1.05,3-1.63a12.32,12.32,0,0,0,2.65-1.92l1.53.68c1.13-1.39,2.32-2.72,3.52-4.06,3.11-.74,4.43-.91,2.26,1.46a37.34,37.34,0,0,1,3.28-2.62c.82-.59,1.42-1,2-1.35a49.41,49.41,0,0,0,4.67-3.48l.1.92a33.32,33.32,0,0,0,3.34-2.14,5.9,5.9,0,0,1,3-1.27c2.64-.25,8.34-2.66,15.11-5.1,3.36-1.27,7-2.45,10.6-3.56a84.51,84.51,0,0,1,10.34-2.45c-3.11-1.8,6.05-.56,6-2.56.89.4,2.7.28.83,1.32A35.18,35.18,0,0,1,244,293.3c1.27-.27,2.43-.45,3.51-.66a16,16,0,0,0,6.08-2.16c.85.45-1.17,1.16-.45,1.38.48-.23,1.9-.94,2.63-.71s-.82.69-1.76,1.16c3.2-.74,4.9-1.53,5.82-2.41a4,4,0,0,0,1.14-2.75c3.49.26,5.13-.06,7.41-1.57,1.26.44,3.28.79-.81,1.52l8-.65c1.64-.14,3.22-.32,4.4-.55s1.95-.48,2-.84c.76.32,3.28-.11,3.89-.31l5.48-.09c1.42,0,2.83,0,5.42-.12l-1.44-.22c2-1.76,4.31-.39,8.49-.53l-.13.17c4.77.81,5.8.68,6.82.64s2-.15,6.68.95l-.42-1.11c.53-1.09,2.61-.58,5.21.2s5.73,1.88,8.49,1.88l-1.87-.89c1.53-.15,3.51.88,5.41,2.15a26.37,26.37,0,0,0,5.16,3.08c.59.33-1.05.09-2,.09,7.31,2.85,1.25-1.19,7-.32.88,1-1.77,1.55,2,2.59,1.73,1,11.67.28,16.42,3.27-1-.89-2-1.78.79-1.44,2,.46,4.57,1.84,7.09,3s5,2.19,7.12,1.93c.45.32.58.53.56.67,1.59.28,4.07,1,6.44,1.61a25,25,0,0,0,5.68,1.05c.34,1.13,1.7,2.05,3.52,2.85a54.8,54.8,0,0,0,6.27,2.27c4.36,1.46,8.4,2.8,7.6,4.33l4.4,2.11c1.47.7,2.89,1.48,4.34,2.22l-.39.18a42.58,42.58,0,0,0,6.09,3.08,24.67,24.67,0,0,0,3.82,1c1.1,1,0,.67-.15.76,1.82,1.36,3.27,2.37,4.46,3.24a33.91,33.91,0,0,0,3.18,2.13c.5.29,1,.56,1.53.82s1.05.56,1.64.85c1.17.58,2.58,1.17,4.34,2l-.06,1.36a20.36,20.36,0,0,1,4,3.54l3.17,3.19.88.86.44.46a11.9,11.9,0,0,0,.88.86,12.13,12.13,0,0,0,.1,1.81c.09,1.19.23,2.46.44,3.65-.13-.09-.35-.27-.53-1a41.23,41.23,0,0,1,.34,8.15c-.09,2.8-.39,5.62-.62,8.23a53.75,53.75,0,0,0-.28,7,7.13,7.13,0,0,0,1.51,4.55c.22,2.24.46,4.48.65,6.73.76-8.65,1.68,1.39,2.53-2.14.06,3.45-1.82,8.76-1.71,4.55l.25-.64c-1-.84-1.37,1.83-1.67,4.67s-.68,5.83-1.37,5.64c-1.65,16.94-5.8,33-10.12,48.25l2-1.34c-.52,1.77-1,3.57-1.57,5.33-.78,1.29-1.76,1.51-.6-2.26-1.45,1.74-1.14,6.56-.83,6.79-1.47,3.6-1.71,2.72-1.64,1.25s.32-3.57,0-2.44-.54,2.07-.84,3.1l.4-.63c-.18,2.67.47,3.13-1.15,7.6-1.31,2.73-1.46,1.12-1.91,2.22-.05,0-.13.05-.23.31s-.1.28-.19.54-.24.82-.41,1.36l-.47,1.29c-.13.21-.05.44,0,.67l.07.68.13,1.35,0,.34,0,.22,0,.41c.07,1.08.1,2.15.1,3.23.41-.87.8-1.76,1.16-2.67.86,2.89,0,6.26,1.51,3.15a30.37,30.37,0,0,0-1.35,5.81,82.89,82.89,0,0,1-1.9,8.34,47.4,47.4,0,0,1-2.95,7.63,16.94,16.94,0,0,1-2.55,4c-1.43,3.88-4.14,7.12-8.14,10.06.58-.26,1.23-.25,1.31.16,0,.22-.07.52-.42.94a7.8,7.8,0,0,1-1.91,1.52c-.08-.85-.58-1-1.34-.9a6.44,6.44,0,0,0-1.33.42l-.79.32-1.12.5-1.4.61-.36.16-.18.08c-.06,0-.08.1-.12.15l-.46.64-.93,1.28-.47.64-.34.42a9.7,9.7,0,0,1-2.85,2.52c1.48-1-.18,1.79-1.76,4.35s-3,5-.67,3.44c-2.4,3-1-.45-3.28,1.5a63.31,63.31,0,0,1-8.91,11.76c-3.54,3.89-7.44,7.8-11.11,12,.17.4,1.9-.56.67,1.58-1.82,1-3.67,2-5.51,2.9-1.4,1.7.16,3-3.67,4.9.64-.16,1.6-.39.61.72-1.07.87-2.13,1.75-3.21,2.62l-1.59,1.33-.8.66L366,565l-.5.51-5.82,5.94c-3.91,4-7.91,7.86-12.13,11.56-8.4,7.37-17.82,13.87-28.29,17.47,2.94-.78,1.27.27-.73,1.36,1.4-.51.43.87.93,1.2L315,604.44c-1.5.44-3,.83-4.49,1.25-.45,1-2.75,2-4.94,2.88s-4.47,1.73-4.67,2.57l2.72-1.3c-1.58,1.48.06,1.85,2.11,2.12s4.53.35,4.66,1.45a9.55,9.55,0,0,1,3.45-1.91c1.37-.5,3-.81,4.61-1.31a29.94,29.94,0,0,0,5-1.88,14.41,14.41,0,0,0,4.44-3.48c1.64-.47-.86,1.32.14,1.29,1.17-1.79,3.07-3,6.83-5l-.28.45,12.13-8.27a145.33,145.33,0,0,0,12.65-9.53l-1.44-.1a25.48,25.48,0,0,1,4-2.77c.64-1.72-.83-.34-2.34,1S356.5,584.63,357,583c2.14-.47,5.84-4,9.3-7.44.86-.87,1.72-1.73,2.53-2.56s1.59-1.59,2.32-2.26a6.47,6.47,0,0,1,.8-.55c.36-.24.7-.45,1-.62a3.52,3.52,0,0,1,1.64-.53c3.24-3-1.76,0,1.45-3l1.3-.33.22-1.38c2.15-1.93,3.78-2.37,4.25-2a21.84,21.84,0,0,0-1.82,2.08,26.9,26.9,0,0,0,5-4.76,46,46,0,0,1,3.31-3.8l-3.21,2.82c3.95-4.57,8.46-9.53,12.65-14.7a105.79,105.79,0,0,0,10.86-15.65l-.91.44c1.1-1.94,1.89-3.27,2.59-4.28s1.27-1.73,1.87-2.46,1.23-1.48,2-2.57l.61-.89.58-.9c.29-.4.45-1,1.14-1.29l-.11.18a2.86,2.86,0,0,1,.29-.33l.16-.18s0-.05.1-.1l.18-.14,1.52-1.14,3.33-2.45c-.87,1,.28.52,1.37,0s2.08-1,.92.41a35.31,35.31,0,0,0,3.57-4,10,10,0,0,0,1.06-1.78c.28-.85.34-1.39,1.54-4.6.51-.25,1-.51,1.55-.78.31-1.17.4-1.82.69-2.76s.82-2.12,1.77-4.41c-.56,2,.06,1.43.69.9s1.28-1,.67,1.33a24.07,24.07,0,0,0,4.35-11.94c.39-3.29.45-5.77,2-8.16-1-2.56-1.4-.22-1.79,2.3s-.86,5.35-.83,4c-.6,1.05-.78,0-.81-1.72a49.88,49.88,0,0,1,.26-5.65c.13-1.64.87-3,1.54-5.12a17.58,17.58,0,0,0,.74-3.77c0-.2.08-.4.12-.6a1.07,1.07,0,0,1,.17-.6c.11-.2.21-.4.3-.59l0-.08.06-.16.13-.34.26-.71a3.49,3.49,0,0,0-.21.82,3.09,3.09,0,0,1-.14.61,2.81,2.81,0,0,0,.44-.83c.14-.35.27-.71.38-1.08.23-.73.4-1.49.6-2.27a15.49,15.49,0,0,1,1.81-4.82,6.05,6.05,0,0,1,.36-3.36c.26-1,.43-1.83-.32-2.37-.56,2.44-1.24,4.84-1.87,7.26.89-4.2.13-8.55,2.92-15a15.88,15.88,0,0,1,0,4.19c1.09-1.82.71-3.89,1.79-5.79.77.52.28,2.75-.42,5.44a38.12,38.12,0,0,0-1.74,8.18c1.41-1.88,1.26-8.65,2.45-5.9-.67-1.92-.06-3.84.67-6a36.17,36.17,0,0,0,1.08-3.5,14,14,0,0,0,.29-4.05l.94.6a22.24,22.24,0,0,1,.38-4.34c.25,1.05.44,2.1.66,3.16a17.26,17.26,0,0,1,1.45-6.42c.38-1,.79-2,1.11-3.06a13.51,13.51,0,0,0,.57-3.18c-.83,4.46-1.31,4.88-1.67,4.66s-.72-1.11-1.5.67a26.75,26.75,0,0,1,1-5.8,10.36,10.36,0,0,1,1.52-2.81,12.14,12.14,0,0,0,1.68-3.05,25.27,25.27,0,0,0,1.4-6.53c-.06,1.71-1.65,6.18-1.68,3.49a40.41,40.41,0,0,1,2.2-6.74c.91-8.24-1.23,1.12-1.4-2.46,1.62-2.63,0-4.1,0-7.72l1.07.09c.79-4.65.29-5.33-.2-5.87s-.95-1-.24-5.15l1.22,3.68-.06-4.44,1.15,1c-.53-4.87-.28-6.33.3-11-.81,1.06-1.89-.69-1.84-4.84.7-2.81,1,1.62,1-4.28a5.59,5.59,0,0,1,.4,5.37c.35.27.64,1.33,1,1.62a21.08,21.08,0,0,0,.49-5.27c0-1.81-.17-3.51-.16-4.59a13.23,13.23,0,0,1-.26,2.32c-.5-2.86-.93-5.72-1.51-8.56.38-1.35.72-.29,1.06.77-.15-1.73-.67-2.92-.81-5.47.88.64,1.78.45,2.26,4.07-.37-2.73-.75-5.45-1.16-8.1.36-.54.92-4.15,1.27-3.12l0-.49V342c0-.63,0-1.27-.06-1.93-.06-1.32-.17-2.69-.29-4.07-1.44-1.08-2.94-2.16-4.43-3.24l-1.12-.81-.7-.45-1.33-.88a32.94,32.94,0,0,1-5.06-4.07,6.82,6.82,0,0,1-2.06-1.08l-3.21-2.8c-1.06-.91-2.11-1.85-3.23-2.74a33.44,33.44,0,0,0-7.95-4.69l-2.46-3.38c-4.77-2.37,3.47,4.3-4.44.37-2.8-1.36-3.15-1.91-3-2.34s.8-.72-.05-1.43a62.48,62.48,0,0,1-6-1.72A24.64,24.64,0,0,1,409.4,303,36,36,0,0,1,414.09,305.08Zm-60.91-21.52c1.27.08,3.86.05,4.59.9C356.07,285.28,355.17,284.42,353.18,283.56Zm-97.44-.41a7.35,7.35,0,0,1,4-.47A15.09,15.09,0,0,1,255.74,283.15ZM163.11,476.83l-.06-.12C163.25,474.21,163.16,475.1,163.11,476.83Zm.34,5.16c.26.48.4.41.5.17a5.3,5.3,0,0,1-.73-2.74C163,479.82,162.9,480.53,163.45,482Zm270.39-20.71.63-.94c-.13.61-.23,1-.31,1.28a1.59,1.59,0,0,1-.24.55s-.06-.09-.06-.29v-.33Z" style="fill: #0b0c15"/>
            <path d="M266.48,279.92a.92.92,0,0,1,.6.5C267.55,280.17,267.53,280,266.48,279.92Z" style="fill: #0b0c15"/>
            <path d="M448.81,326.42l.15.14a.49.49,0,0,0,.28,0Z" style="fill: #0b0c15"/>
            <path d="M137.83,397.21a7.46,7.46,0,0,1,.28-2.34C137.84,394.84,137.68,395.4,137.83,397.21Z" style="fill: #0b0c15"/>
            <path d="M178,503.59c-.43-.28-.84-.58-1.24-.9s-.82-.62-1.21-1a11.15,11.15,0,0,1,1.14,1.22c.25.33.43.63.67.93C177.45,503.64,177.25,503,178,503.59Z" style="fill: #0b0c15"/>
            <path d="M194.26,532.09c.43.35.7.89,1.13,1.23l.31-.41C194.29,531.13,193.05,530.06,194.26,532.09Z" style="fill: #0b0c15"/>
            <path d="M178.19,508.22c-.14.44.25.94,1,1.4a10.27,10.27,0,0,0,1.3.71l.76.35c.41.21.76.34,1.15.52l-.52-.26c.38-.16.48-.35.31-.58a1.61,1.61,0,0,0-.44-.39,4.29,4.29,0,0,0-.5-.33c-.37-.21-.85-.41-1.37-.66S178.76,508.5,178.19,508.22Z" style="fill: #0b0c15"/>
            <path d="M183.1,511.52a2.39,2.39,0,0,1,.67.36l.43.65c.28.43.55.87.8,1.31.32,0,.17-.27-.2-.74l-.67-.84-.39-.48Z" style="fill: #0b0c15"/>
            <path d="M165.84,488.08c.18,1.09,1.32.21,1.2.9.76.33-.24-1.15-1-2.16-.4-.49-.73-.87-.85-.77S165.2,486.73,165.84,488.08Z" style="fill: #0b0c15"/>
            <path d="M178.23,511.8l-.17-1.42c-.56,0-1.1,0-1.67-.05C177,510.84,177.59,511.33,178.23,511.8Z" style="fill: #0b0c15"/>
            <path d="M165.08,497c.29.61.6,1.21.92,1.8s.66,1.18,1,1.76c.12-.17.49.2.94.64C166.47,499.16,165.32,496.71,165.08,497Z" style="fill: #0b0c15"/>
            <path d="M168,501.15a11.23,11.23,0,0,0,2.17,2.39C169.66,503,168.67,501.9,168,501.15Z" style="fill: #0b0c15"/>
            <path d="M173.49,508.79c-.26-.33-.53-.64-.77-1-.71-.66-1.38-1.36-2-2.06A39.86,39.86,0,0,0,173.49,508.79Z" style="fill: #0b0c15"/>
            <path d="M155.78,454.83l-1.66-4.14c-.5-.33-.38.91.29,2.44C155,454.07,155.64,455.59,155.78,454.83Z" style="fill: #0b0c15"/>
            <path d="M155.81,467.93a3.48,3.48,0,0,1,1-1.85l-1.37-.13C155.57,466.35,155.69,467.22,155.81,467.93Z" style="fill: #0b0c15"/>
            <path d="M152.73,456.33c-.5-.3-3.07-5.89-1.22-.47C152,456.18,153.71,460.37,152.73,456.33Z" style="fill: #0b0c15"/>
            <polygon points="140.89 389.9 141.01 391.04 143.25 390.66 140.89 389.9" style="fill: #0b0c15"/>
            <path d="M143.39,329.12c-2.19,1.5-2.2,2-2.18,2.39a.88.88,0,0,1-.2.7,3.67,3.67,0,0,1-.59.55c-.18.15-.4.31-.65.5l-1.05.76c-.28.41-.09.38.32.14a6.89,6.89,0,0,0,.75-.48c.26-.17.66-.47.82-.56.83-.53,1.64-1.07,1.31-.48C144,330.15,145.48,329.31,143.39,329.12Z" style="fill: #0b0c15"/>
            <path d="M141.92,332.64c-.35.42-.64.8-1.06,1.35A9.42,9.42,0,0,0,141.92,332.64Z" style="fill: #0b0c15"/>
            <path d="M304.46,606.93l-3.33.77,2.32-.07C303.79,607.4,304.15,607.17,304.46,606.93Z" style="fill: #0b0c15"/>
            <path d="M299,610.82l-1.27-1.07-1.44,2A6.78,6.78,0,0,1,299,610.82Z" style="fill: #0b0c15"/>
            <path d="M344.41,278.56l-.33.28c.45.49,1.27.66,2.85,1.08C346.11,279.44,345.25,279,344.41,278.56Z" style="fill: #0b0c15"/>
            <polygon points="389.38 292.99 388.63 292.68 389.58 294.43 389.38 292.99" style="fill: #0b0c15"/>
            <path d="M426.18,308.37c-1.39-.89-3.24-1.52-4.65-2.36C424.8,307.48,425.76,310,426.18,308.37Z" style="fill: #0b0c15"/>
          </g>
        </g>
      </g>
      <path d="M297.64,604.9l-6.31-2.39c-26-9.86-46.29-28.29-58.77-42.12a236.43,236.43,0,0,1-43.71-52.75c-7.71-3.11-14-9.39-17.91-17.91a45.31,45.31,0,0,1-3.34-26c-12.81-34.36-18.7-71.67-17.51-110.92l.24-7.92,6-5.13c22-18.61,58.08-34.85,96.57-43.44a212.67,212.67,0,0,1,89.37,0c38.5,8.59,74.61,24.83,96.58,43.45l6.05,5.12.24,7.92c1.19,39.25-4.7,76.57-17.51,110.92a45.39,45.39,0,0,1-3.34,26c-3.9,8.52-10.2,14.8-17.91,17.91a237,237,0,0,1-43.71,52.75C350.23,574.22,330,592.65,304,602.51ZM162.39,350.75l-.08,2.48c-1.16,38.24,4.67,74.5,17.31,107.79l.62,1.61-.33,1.7a33.52,33.52,0,0,0,2.15,20.31c2.85,6.24,7.25,10.44,12.72,12.14l2.22.7,1.2,2a224.88,224.88,0,0,0,42.76,52l.47.47c11.56,12.84,30.35,30.06,54.23,39.1l2,.75,2-.75c23.88-9,42.67-26.26,54.23-39.1l.46-.47a224.66,224.66,0,0,0,42.77-52l1.19-2,2.23-.7c5.47-1.7,9.86-5.9,12.72-12.14a33.45,33.45,0,0,0,2.14-20.31l-.32-1.7.61-1.61c12.65-33.29,18.48-69.55,17.32-107.79l-.08-2.48-1.89-1.6c-20.54-17.4-54.68-32.67-91.34-40.84a199.79,199.79,0,0,0-84.05,0c-36.65,8.17-70.79,23.44-91.33,40.83Z" style="fill: #fff"/>
      <path d="M297.64,598.36l-4.14-1.57c-25-9.47-44.55-27.33-56.62-40.74A230.43,230.43,0,0,1,193,502.62c-7.1-2.21-12.88-7.61-16.46-15.43a39.47,39.47,0,0,1-2.59-24C161,429.14,155,392.1,156.2,353.05l.16-5.21,4-3.36c21.26-18,56.38-33.76,93.95-42.14a206.06,206.06,0,0,1,86.71,0c37.58,8.38,72.7,24.13,94,42.14l4,3.36.16,5.21c1.18,39.05-4.77,76.09-17.71,110.14a39.47,39.47,0,0,1-2.59,24c-3.58,7.82-9.36,13.22-16.46,15.43a230.22,230.22,0,0,1-43.93,53.43c-12.06,13.41-31.62,31.27-56.61,40.74ZM167.32,353.13v.25c-1.16,38.15,4.75,74.26,17.56,107.34l.61,1.59L185.1,464a28.82,28.82,0,0,0,1.51,18.59c1.74,3.82,5.08,8.62,11,9.8l2.45.48,1.26,2.16a219.77,219.77,0,0,0,43.16,53l.43.43c15.87,17.69,34.5,31.19,52.48,38l.21.07.2-.07c18-6.81,36.62-20.31,52.48-38l.44-.43a219.69,219.69,0,0,0,43.15-53l1.27-2.16,2.45-.48c6-1.18,9.29-6,11-9.8A28.82,28.82,0,0,0,410.18,464l-.38-1.66.61-1.59c12.81-33.08,18.71-69.19,17.56-107.34v-.25l-.2-.17c-19.94-16.9-53.28-31.77-89.19-39.77a194.62,194.62,0,0,0-81.87,0c-35.9,8-69.24,22.87-89.19,39.77Z" style="fill: #ffcc1c"/>
      <path d="M198.89,496.66c-6.74-1.33-11.69-6.12-14.67-12.64a33.61,33.61,0,0,1-1.83-21.64c-13.16-34-18.62-70.61-17.51-107l.08-2.67,2-1.72c22.79-19.3,58.89-33.2,89.47-40a195.24,195.24,0,0,1,82.35,0c30.58,6.82,66.69,20.71,89.47,40l2,1.72.08,2.67c1.1,36.38-4.35,73-17.52,107A33.48,33.48,0,0,1,411.05,484c-3,6.52-7.92,11.31-14.66,12.64a220.34,220.34,0,0,1-43.23,53.06c-14.46,16.12-33,30.85-53.4,38.57l-2.12.8-2.12-.8c-20.38-7.72-38.94-22.45-53.4-38.57A220.34,220.34,0,0,1,198.89,496.66Z" style="fill: #ed2324;fill-rule: evenodd"/>
      <path d="M297.64,579.27C216.43,541.88,167.8,457,170.87,355.83,199,332,255.63,312.64,297.64,312c42,.63,98.62,20,126.77,43.82C427.48,457,378.85,541.88,297.64,579.27Z" style="fill: #0b0c15;fill-rule: evenodd"/>
      <path d="M297.64,558.62c69.12-36.94,103.54-110.38,104.49-187.51-27.81-18.69-73.78-31.8-104.49-32.35-30.71.55-76.68,13.66-104.5,32.35,1,77.13,35.37,150.57,104.5,187.51Z" style="fill: #fff;stroke: #ffcd1b;stroke-miterlimit: 10;stroke-width: 4.44618231623445px;fill-rule: evenodd"/>
    </g>
    <path d="M269.36,370.24s19.57-50-71.7-53.12c0,0,12.31-5.57,33.6-10.53,6.17-1.44,18-5.64,23.62-7.3,10.95-3.23,34.18-6.12,34.18-6.12.87-15.69,21.27-50.14,55-39.49,0,0-34.28.83-33.55,56.89.62,47.28,6.67,50,6.67,50Z" style="fill: #fff;fill-rule: evenodd"/>
    <g>
      <g>
        <path d="M420,365.52s-18.66,1.81-14.06,19.22c0,0,3.72,17.58-15,19.22a130.6,130.6,0,0,0,2-20.14S390.39,361.13,420,365.52Z" style="fill: #fff"/>
        <path d="M420,365.52s-18.34,1.81-13.82,19.22c0,0,2.65,17.58-15.75,19.22.33,0,2.41-8.44,2.6-9.44a18.8,18.8,0,0,0-.12-6.26,23.78,23.78,0,0,1,.58-10.51c1.26-4.11,4.69-6.91,8.38-9.14C407.2,365.35,413.86,365,420,365.52Z" style="fill: #ffcc1c"/>
        <path d="M359,302.29s-23-25.62-14.78-46.65c0,0,4.93-9.53,12.81,0,0,0,5.59,6.31,9.86-4.24s18.25-37.77,61.95-17.63c0,0-40.07-10.33-46.08,23.18,0,0-5,19.39-17.84,14.46,0,0-12.56-8.91-11.17,8.54S359,302.29,359,302.29Z" style="fill: #fff"/>
        <path d="M245.45,326.71c.5.59,7.16.94,8,1.23a30.22,30.22,0,0,1,10.19,6.37c9.57,9,16.44,28.26,10.29,40.57a24.91,24.91,0,0,1-13,12.19S239.67,398.9,238,414.34c0,0-4.27,33.18-3.29,48.3,0,0,11.5,4.27,8.54,22,0,0-.32,33.51,19.39,44V464.28s-12.49-1-16.76-7.23c0,0-4.41-5.34-.11-22.34l34.28,11.17s1.64,26.61-3.61,35.15L289,488.92l13.14-7.23s-4.27-9.53-3.94-35.81l20-5.58s-4.68-18.4-8-24a113.3,113.3,0,0,1,11.29,22.34l16.64-4.27L335,450.15s2,6.9-6.9,10.19c0,0,5.14,14.12,2.84,17.08,0,0-5.8-14.13-7.11-15.11L314.91,464l.33,64.72s14.24-8.54,17.67-39.09V478.41s-1.17-11.83,8-14.79c0,0,0-25.3-1.64-43.37,0,0-.33-17.74-16.43-27.92-5.57-3.53-11-6.77-16.72-10.14-23.64-14-24.53-47.47-20.23-71.35,2.29-12.69,6.28-25.8,13.24-36.77,10-15.81,24.26-19.32,41.7-20.39,0,0-32.19,2-12.48,45.67,0,0,21.68,35.81,23,39.1s.54,14.74-7.35,30.18c.05-.09,2.61-.66,2.85-.76,2.71-1.15,0,0,2.71-1.15,14.3-5.93,21.25-28,17.44-44.7,0,0,23.77,28.25,10.63,59.79a35.79,35.79,0,0,1-12.81,20.05s-16.1,18-1,27.22c0,0,10.54-1.1,18.48-12.82,0,0,3.86,39.81-15.85,78.25,0,0-16.61,48.92-68.85,83.41,0,0-51.78-29.53-77.73-76.19-9.35-16.81-13-36-12.58-55.13.3-12.88,1.65-26,6.17-38.13a57.45,57.45,0,0,1,9-16.4c4.38-5.34,10-9.43,14.89-14.25C250.75,364.67,258.78,342.6,245.45,326.71Z" style="fill: #ffcc1c;fill-rule: evenodd"/>
        <path d="M420,365.52a18.51,18.51,0,0,0-7.69,4.68,15.71,15.71,0,0,0-4.12,7.13,17.31,17.31,0,0,0-.5,5.12c.08,1.87.73,3.68.78,5.55.15,5.76-3.93,11.13-8.95,13.61a25.51,25.51,0,0,1-9.09,2.35c.17,0,.62-1,.69-1.12a23.87,23.87,0,0,0,1.55-3.27,24.12,24.12,0,0,0,1.75-12.29,16.88,16.88,0,0,1,0-3.76,16.61,16.61,0,0,1,4.94-10.28c4.93-4.81,12.12-6.68,18.76-7.51A13.45,13.45,0,0,0,420,365.52Z" style="fill: #ef4136"/>
        <path d="M361.37,305.9s-23-25.63-14.78-46.65c0,0,4.93-9.53,12.81,0,0,0,5.59,6.31,9.86-4.24s15.87-41.38,59.57-21.24c0,0-37.69-6.72-43.7,26.79,0,0-5,19.38-17.84,14.46,0,0-12.56-8.91-11.17,8.54S361.37,305.9,361.37,305.9Z" style="fill: #ffcc1c"/>
        <path d="M364.76,310.32s-23-25.62-14.78-46.65c0,0,4.92-9.53,12.81,0,0,0,5.58,6.32,9.86-4.23s12.81-36.84,56.18-25.67c0,0-34.3-2.3-40.31,31.22,0,0-5,19.38-17.85,14.45,0,0-12.55-8.91-11.17,8.54S364.76,310.32,364.76,310.32Z" style="fill: #ef4136"/>
      </g>
      <path d="M248.65,326.71c.83.65,3.47.7,4.51,1a34.62,34.62,0,0,1,10.29,5.19c10.18,7.5,17.18,22.78,15.56,35.45a17.87,17.87,0,0,1-1.65,5.32c-8,16.86-34,19.38-36.3,40.65,0,0-4.27,33.18-3.28,48.3,0,0,11.5,4.27,8.54,22,0,0-.33,33.51,19.38,44V464.28c0,.08-5.77-1-6.12-1.1-5.56-1.45-11.31-4.61-13.34-10.32s-1-12.21-.58-18.15l37.46,11.17s1.64,26.61-3.62,35.15L292,488.92l13.14-7.23s-4.27-9.53-3.94-35.81l20-5.58s-7.85-18.4-11.13-24a67.73,67.73,0,0,1,14.45,22.34L338,434.38c0,3.25-.11,6.49-.11,9.74,0,2.7.44,5.48.28,8.16-.23,4.05-3.49,6.73-7.07,8.06,0,0,2,14.12-.33,17.08,0,0-2.62-14.13-3.94-15.11L317.94,464l.33,64.72s16.47-8.54,19.9-39.09V478.41s-1.17-11.83,8-14.79c0,0,0-25.3-1.65-43.37,0,0-.33-17.74-16.42-27.92-7.81-4.94-16.65-8.71-23.31-15.28-24.54-24.19-12.06-81.14,2.94-107.27,0,0,11.5-20,36.14-16.1,0,0-32.2,2-12.49,45.67,0,0,21.69,35.81,23,39.1s4.27,18.4-3.61,33.84c0,0,14.78-7.56,19.05-23.66,0,0,3.61-16.1-3-26.61,0,0,26.94,28.25,13.8,59.79a35.79,35.79,0,0,1-12.81,20.05s-16.1,21.35-1,30.55c0,0,10.19,4.93,15.45-12.81,0,0,6.89,36.47-12.82,74.91,0,0-19.71,50.26-71.95,84.76,0,0-45.34-30.88-71.29-77.54,0,0-20.37-32.85-10.19-77.86,0,0,2.63-20.7,24-40.74,0,0,15.44-11.17,19.38-26C259.46,357.17,266.75,340.93,248.65,326.71Z" style="fill: #ed2324;fill-rule: evenodd"/>
    </g>
  </g>
</svg>
